<svg width="100" height="100" viewBox="0 0 100 100" fill="none" xmlns="http://www.w3.org/2000/svg">
<path d="M28.125 74.2188H4.6875C4.25625 74.2188 3.90625 73.8687 3.90625 73.4375C3.90625 73.0063 4.25625 72.6562 4.6875 72.6562H28.125C28.5562 72.6562 28.9062 73.0063 28.9062 73.4375C28.9062 73.8687 28.5562 74.2188 28.125 74.2188ZM84.3422 75.7812H70.3125C69.8812 75.7812 69.5312 75.4312 69.5312 75C69.5312 74.5688 69.8812 74.2188 70.3125 74.2188H84.3422C84.7734 74.2188 85.1234 74.5688 85.1234 75C85.1234 75.4312 84.7734 75.7812 84.3422 75.7812ZM83.5609 60.1562H70.3125C69.8812 60.1562 69.5312 59.8062 69.5312 59.375C69.5312 58.9438 69.8812 58.5938 70.3125 58.5938H83.5609C83.9922 58.5938 84.3422 58.9438 84.3422 59.375C84.3422 59.8062 83.9922 60.1562 83.5609 60.1562ZM65.625 80.4688H32.8125C32.3813 80.4688 32.0312 80.1187 32.0312 79.6875C32.0312 79.2563 32.3813 78.9062 32.8125 78.9062H65.625C66.0563 78.9062 66.4062 79.2563 66.4062 79.6875C66.4062 80.1187 66.0563 80.4688 65.625 80.4688Z" fill="#006FBA"/>
<path d="M56.2501 80.469H42.1876C41.7563 80.469 41.4063 80.119 41.4063 79.6878V70.3128C41.4063 69.8815 41.7563 69.5315 42.1876 69.5315H56.2501C56.6814 69.5315 57.0313 69.8815 57.0313 70.3128V79.6878C57.0313 80.119 56.6814 80.469 56.2501 80.469ZM42.9688 78.9065H55.4688V71.094H42.9688V78.9065ZM45.3126 53.9065C45.1892 53.9065 45.0657 53.8769 44.9517 53.8175C44.6939 53.6831 44.5313 53.4175 44.5313 53.1253V42.1878C44.5313 41.8956 44.6939 41.63 44.9517 41.4956C45.211 41.3612 45.522 41.38 45.761 41.5487L53.5735 47.0175C53.7829 47.1644 53.9063 47.4034 53.9063 47.6581C53.9063 47.9128 53.7813 48.1519 53.5735 48.2987L45.761 53.7675C45.6267 53.8597 45.4704 53.9065 45.3126 53.9065ZM46.0938 43.6878V51.6253L51.7626 47.6565L46.0938 43.6878ZM73.5173 33.594C73.3938 33.594 73.2704 33.5644 73.1563 33.505C72.897 33.3706 72.736 33.1034 72.736 32.8128V26.5628C72.736 26.2706 72.8985 26.005 73.1563 25.8706C73.4157 25.7347 73.7267 25.755 73.9657 25.9237L78.4298 29.0487C78.6392 29.1956 78.7626 29.4347 78.7626 29.6894C78.7626 29.944 78.6376 30.1831 78.4298 30.33L73.9657 33.455C73.8314 33.5472 73.6735 33.594 73.5173 33.594ZM74.2985 28.0628V31.3112L76.6189 29.6878L74.2985 28.0628ZM13.6157 66.4065C13.4923 66.4065 13.3688 66.3769 13.2548 66.3175C12.997 66.1831 12.8345 65.9175 12.8345 65.6253V57.8128C12.8345 57.5206 12.997 57.255 13.2548 57.1206C13.5126 56.9862 13.8251 57.005 14.0642 57.1737L19.6438 61.08C19.8532 61.2253 19.9767 61.4644 19.9767 61.719C19.9767 61.9737 19.8517 62.2128 19.6438 62.3581L14.0642 66.2644C13.9313 66.3597 13.7735 66.4065 13.6157 66.4065ZM14.397 59.3128V64.1253L17.8329 61.719L14.397 59.3128ZM75.9939 68.0003V64.8128C75.9939 64.4972 76.3501 64.3112 76.6079 64.4925L78.8845 66.0862C79.1064 66.2425 79.1064 66.5706 78.8845 66.7269L76.6079 68.3206C76.3485 68.5019 75.9939 68.3159 75.9939 68.0003Z" fill="#006FBA"/>
<path d="M82.8125 80.4688H71.875C70.5828 80.4688 69.5312 79.4172 69.5312 78.125V56.25C69.5312 54.9578 70.5828 53.9062 71.875 53.9062H82.8125C84.1047 53.9062 85.1562 54.9578 85.1562 56.25V78.125C85.1562 79.4172 84.1047 80.4688 82.8125 80.4688ZM71.875 55.4688C71.4437 55.4688 71.0938 55.8203 71.0938 56.25V78.125C71.0938 78.5547 71.4437 78.9062 71.875 78.9062H82.8125C83.2438 78.9062 83.5938 78.5547 83.5938 78.125V56.25C83.5938 55.8203 83.2438 55.4688 82.8125 55.4688H71.875ZM26.5625 80.4688H6.25C4.95781 80.4688 3.90625 79.4172 3.90625 78.125V50C3.90625 48.7078 4.95781 47.6562 6.25 47.6562H26.5625C27.8547 47.6562 28.9062 48.7078 28.9062 50V78.125C28.9062 79.4172 27.8547 80.4688 26.5625 80.4688ZM6.25 49.2188C5.81875 49.2188 5.46875 49.5688 5.46875 50V78.125C5.46875 78.5547 5.81875 78.9062 6.25 78.9062H26.5625C26.9937 78.9062 27.3438 78.5547 27.3438 78.125V50C27.3438 49.5688 26.9937 49.2188 26.5625 49.2188H6.25Z" fill="#006FBA"/>
<path d="M16.4062 77.2954C16.8377 77.2954 17.1875 76.9456 17.1875 76.5142C17.1875 76.0827 16.8377 75.7329 16.4062 75.7329C15.9748 75.7329 15.625 76.0827 15.625 76.5142C15.625 76.9456 15.9748 77.2954 16.4062 77.2954Z" fill="#006FBA"/>
<path d="M49.2188 67.9688C50.0817 67.9688 50.7812 67.2692 50.7812 66.4062C50.7812 65.5433 50.0817 64.8438 49.2188 64.8438C48.3558 64.8438 47.6562 65.5433 47.6562 66.4062C47.6562 67.2692 48.3558 67.9688 49.2188 67.9688Z" fill="#006FBA"/>
<path d="M77.3438 78.125C77.7752 78.125 78.125 77.7752 78.125 77.3438C78.125 76.9123 77.7752 76.5625 77.3438 76.5625C76.9123 76.5625 76.5625 76.9123 76.5625 77.3438C76.5625 77.7752 76.9123 78.125 77.3438 78.125Z" fill="#006FBA"/>
<path d="M59.375 38.2812H25C24.5688 38.2812 24.2188 37.9312 24.2188 37.5C24.2188 37.0688 24.5688 36.7188 25 36.7188H59.375C59.8063 36.7188 60.1562 37.0688 60.1562 37.5C60.1562 37.9312 59.8063 38.2812 59.375 38.2812Z" fill="#006FBA"/>
<path d="M34.3423 35.1562C34.7738 35.1562 35.1235 34.8065 35.1235 34.375C35.1235 33.9435 34.7738 33.5938 34.3423 33.5938C33.9108 33.5938 33.561 33.9435 33.561 34.375C33.561 34.8065 33.9108 35.1562 34.3423 35.1562Z" fill="#006FBA"/>
<path d="M31.2173 35.1562C31.6488 35.1562 31.9985 34.8065 31.9985 34.375C31.9985 33.9435 31.6488 33.5938 31.2173 33.5938C30.7858 33.5938 30.436 33.9435 30.436 34.375C30.436 34.8065 30.7858 35.1562 31.2173 35.1562Z" fill="#006FBA"/>
<path d="M28.0923 35.1562C28.5238 35.1562 28.8735 34.8065 28.8735 34.375C28.8735 33.9435 28.5238 33.5938 28.0923 33.5938C27.6608 33.5938 27.311 33.9435 27.311 34.375C27.311 34.8065 27.6608 35.1562 28.0923 35.1562Z" fill="#006FBA"/>
<path d="M90.3017 21.4172C90.1017 21.4172 89.9017 21.3406 89.7485 21.1891C89.4438 20.8844 89.4438 20.3891 89.7485 20.0844L91.9579 17.875C92.2626 17.5703 92.7579 17.5703 93.0626 17.875C93.3673 18.1797 93.3673 18.675 93.0626 18.9797L90.8532 21.1891C90.7017 21.3406 90.5017 21.4172 90.3017 21.4172Z" fill="#006FBA"/>
<path d="M92.511 21.4172C92.311 21.4172 92.111 21.3406 91.9579 21.1891L89.7485 18.9797C89.4438 18.675 89.4438 18.1797 89.7485 17.875C90.0532 17.5703 90.5485 17.5703 90.8532 17.875L93.0626 20.0844C93.3673 20.3891 93.3673 20.8844 93.0626 21.1891C92.911 21.3406 92.711 21.4172 92.511 21.4172Z" fill="#006FBA"/>
<path d="M91.4062 24.2188C88.8219 24.2188 86.7188 22.1156 86.7188 19.5312C86.7188 16.9469 88.8219 14.8438 91.4062 14.8438C93.9906 14.8438 96.0938 16.9469 96.0938 19.5312C96.0938 22.1156 93.9906 24.2188 91.4062 24.2188ZM91.4062 16.4062C89.6828 16.4062 88.2812 17.8078 88.2812 19.5312C88.2812 21.2547 89.6828 22.6562 91.4062 22.6562C93.1297 22.6562 94.5312 21.2547 94.5312 19.5312C94.5312 17.8078 93.1297 16.4062 91.4062 16.4062Z" fill="#006FBA"/>
<path d="M59.3423 47.6562C59.2267 47.6562 59.1126 47.6313 59.0032 47.5797C58.7329 47.45 58.561 47.1766 58.561 46.875V21.875C58.561 19.7219 60.3142 17.9688 62.4673 17.9688H87.547C87.7814 17.9688 88.0032 18.0734 88.1517 18.2563C88.3001 18.4375 88.3595 18.6766 88.3126 18.9063C88.2032 19.4422 88.236 19.9891 88.4079 20.5281C88.7017 21.45 89.4564 22.2047 90.3782 22.4984C90.9189 22.6703 91.4642 22.7031 92.0017 22.5938C92.2298 22.5484 92.4704 22.6062 92.6517 22.7547C92.8329 22.9031 92.9392 23.125 92.9392 23.3594V37.5C92.9392 39.6531 91.186 41.4062 89.0329 41.4062H67.4282L59.8298 47.4859C59.6892 47.5984 59.5157 47.6562 59.3423 47.6562ZM62.4673 19.5312C61.1751 19.5312 60.1235 20.5828 60.1235 21.875V45.2484L66.6673 40.0141C66.8064 39.9031 66.9782 39.8438 67.1564 39.8438H89.0314C90.3235 39.8438 91.3751 38.7922 91.3751 37.5V24.2188C91.3751 24.2188 91.3751 24.2188 91.3735 24.2188C90.8829 24.2188 90.3907 24.1406 89.9048 23.9859C88.5095 23.5406 87.3657 22.3969 86.9204 21.0016C86.7642 20.5141 86.6876 20.0234 86.6876 19.5312H62.4673Z" fill="#006FBA"/>
<path d="M70.3125 71.0938H28.125C27.6938 71.0938 27.3438 70.7438 27.3438 70.3125V50C27.3438 49.5688 26.9938 49.2188 26.5625 49.2188H20.3125C19.8813 49.2188 19.5312 48.8687 19.5312 48.4375V29.6875C19.5312 27.5344 21.2844 25.7812 23.4375 25.7812H59.375C59.8063 25.7812 60.1562 26.1313 60.1562 26.5625C60.1562 26.9937 59.8063 27.3438 59.375 27.3438H23.4375C22.1453 27.3438 21.0938 28.3953 21.0938 29.6875V47.6562H26.5625C27.8547 47.6562 28.9062 48.7078 28.9062 50V69.5312H69.5312V56.25C69.5312 54.9578 70.5828 53.9062 71.875 53.9062H77.3438V40.625C77.3438 40.1938 77.6937 39.8438 78.125 39.8438C78.5563 39.8438 78.9062 40.1938 78.9062 40.625V54.6875C78.9062 55.1187 78.5563 55.4688 78.125 55.4688H71.875C71.4437 55.4688 71.0938 55.8203 71.0938 56.25V70.3125C71.0938 70.7438 70.7438 71.0938 70.3125 71.0938Z" fill="#006FBA"/>
<path d="M70.3125 63.2812H28.125C27.6937 63.2812 27.3438 62.9313 27.3438 62.5C27.3438 62.0688 27.6937 61.7188 28.125 61.7188H70.3125C70.7438 61.7188 71.0938 62.0688 71.0938 62.5C71.0938 62.9313 70.7438 63.2812 70.3125 63.2812ZM70.3125 58.5938H28.125C27.6937 58.5938 27.3438 58.2437 27.3438 57.8125C27.3438 57.3813 27.6937 57.0312 28.125 57.0312H70.3125C70.7438 57.0312 71.0938 57.3813 71.0938 57.8125C71.0938 58.2437 70.7438 58.5938 70.3125 58.5938ZM25 49.2188C24.5688 49.2188 24.2188 48.8687 24.2188 48.4375V31.25C24.2188 30.8188 24.5688 30.4688 25 30.4688H59.375C59.8063 30.4688 60.1562 30.8188 60.1562 31.25C60.1562 31.6812 59.8063 32.0312 59.375 32.0312H25.7812V48.4375C25.7812 48.8687 25.4312 49.2188 25 49.2188ZM73.4375 55.4688C73.0062 55.4688 72.6562 55.1187 72.6562 54.6875V40.625C72.6562 40.1938 73.0062 39.8438 73.4375 39.8438C73.8688 39.8438 74.2188 40.1938 74.2188 40.625V54.6875C74.2188 55.1187 73.8688 55.4688 73.4375 55.4688Z" fill="#006FBA"/>
</svg>
