<svg width="100" height="100" viewBox="0 0 100 100" fill="none" xmlns="http://www.w3.org/2000/svg">
<path d="M70.9531 90.25H10.0156C9.455 90.25 9 89.795 9 89.2344V85.1719C9 84.6112 9.455 84.1562 10.0156 84.1562H70.9531C71.5138 84.1562 71.9688 84.6112 71.9688 85.1719V89.2344C71.9688 89.795 71.5138 90.25 70.9531 90.25ZM11.0313 88.2188H69.9375V86.1875H11.0313V88.2188Z" fill="#006FBA"/>
<path d="M34.4761 86.1875H24.1513C23.8588 86.1875 23.5825 86.0616 23.3896 85.8442C23.1966 85.6269 23.1072 85.3344 23.1438 85.0459L24.7871 71.9017C25.0714 69.6247 27.0174 67.9062 29.3127 67.9062C31.608 67.9062 33.5539 69.6247 33.8403 71.9017L35.4836 85.048C35.5202 85.3364 35.4308 85.6269 35.2378 85.8463C35.0428 86.0616 34.7666 86.1875 34.4761 86.1875ZM25.301 84.1562H33.3244L31.8253 72.1536C31.6669 70.8902 30.5863 69.9375 29.3127 69.9375C28.0391 69.9375 26.9585 70.8902 26.8 72.1556L25.301 84.1562Z" fill="#006FBA"/>
<path d="M50.6407 78.0625H33.4604C32.8997 78.0625 32.4447 77.6075 32.4447 77.0469C32.4447 76.4863 32.8997 76.0312 33.4604 76.0312H49.625V74H33.2471C32.6864 74 32.2314 73.545 32.2314 72.9844C32.2314 72.4238 32.6864 71.9688 33.2471 71.9688H50.6407C51.2013 71.9688 51.6563 72.4238 51.6563 72.9844V77.0469C51.6563 77.6075 51.2013 78.0625 50.6407 78.0625ZM48.6094 59.7812H38.4532C37.8925 59.7812 37.4375 59.3262 37.4375 58.7656V40.4844C37.4375 39.9237 37.8925 39.4688 38.4532 39.4688H48.6094C49.17 39.4688 49.625 39.9237 49.625 40.4844V58.7656C49.625 59.3262 49.17 59.7812 48.6094 59.7812ZM39.4688 57.75H47.5938V41.5H39.4688V57.75ZM48.6094 27.2812H38.4532C37.8925 27.2812 37.4375 26.8263 37.4375 26.2656V20.1719C37.4375 19.6113 37.8925 19.1562 38.4532 19.1562H48.6094C49.17 19.1562 49.625 19.6113 49.625 20.1719V26.2656C49.625 26.8263 49.17 27.2812 48.6094 27.2812ZM39.4688 25.25H47.5938V21.1875H39.4688V25.25Z" fill="#006FBA"/>
<path d="M46.5781 21.1875H40.4844C39.9238 21.1875 39.4688 20.7325 39.4688 20.1719V16.1094C39.4688 15.5488 39.9238 15.0938 40.4844 15.0938H46.5781C47.1388 15.0938 47.5938 15.5488 47.5938 16.1094V20.1719C47.5938 20.7325 47.1388 21.1875 46.5781 21.1875ZM41.5 19.1562H45.5625V17.125H41.5V19.1562Z" fill="#006FBA"/>
<path d="M45.5625 17.125H41.5C40.9394 17.125 40.4844 16.67 40.4844 16.1094V10.0156C40.4844 9.455 40.9394 9 41.5 9H45.5625C46.1231 9 46.5781 9.455 46.5781 10.0156V16.1094C46.5781 16.67 46.1231 17.125 45.5625 17.125ZM42.5156 15.0938H44.5469V11.0312H42.5156V15.0938ZM46.5781 63.8438H40.4844C39.9237 63.8438 39.4688 63.3887 39.4688 62.8281V58.7656C39.4688 58.205 39.9237 57.75 40.4844 57.75H46.5781C47.1388 57.75 47.5938 58.205 47.5938 58.7656V62.8281C47.5938 63.3887 47.1388 63.8438 46.5781 63.8438ZM41.5 61.8125H45.5625V59.7812H41.5V61.8125ZM50.6406 41.5H35.4062C33.3486 41.5 31.3864 40.7302 29.8792 39.3306C28.2278 37.7991 27.2812 35.6277 27.2812 33.375C27.2812 28.8941 30.9253 25.25 35.4062 25.25H50.6406C51.2013 25.25 51.6562 25.705 51.6562 26.2656V40.4844C51.6562 41.045 51.2013 41.5 50.6406 41.5ZM35.4062 27.2812C32.0466 27.2812 29.3125 30.0153 29.3125 33.375C29.3125 35.065 30.0234 36.692 31.2605 37.8417C32.3919 38.8919 33.8625 39.4688 35.4062 39.4688H49.625V27.2812H35.4062Z" fill="#006FBA"/>
<path d="M29.2695 76.0312C29.8304 76.0312 30.2852 75.5765 30.2852 75.0156C30.2852 74.4547 29.8304 74 29.2695 74C28.7086 74 28.2539 74.4547 28.2539 75.0156C28.2539 75.5765 28.7086 76.0312 29.2695 76.0312Z" fill="#006FBA"/>
<path d="M34.3477 36.4219C32.6678 36.4219 31.3008 35.0548 31.3008 33.375C31.3008 31.6952 32.6678 30.3281 34.3477 30.3281C36.0275 30.3281 37.3945 31.6952 37.3945 33.375C37.3945 35.0548 36.0275 36.4219 34.3477 36.4219ZM34.3477 32.3594C33.787 32.3594 33.332 32.8164 33.332 33.375C33.332 33.9336 33.787 34.3906 34.3477 34.3906C34.9083 34.3906 35.3633 33.9336 35.3633 33.375C35.3633 32.8164 34.9083 32.3594 34.3477 32.3594Z" fill="#006FBA"/>
<path d="M24.1917 80.0925H14.0781C11.2791 80.0925 9 77.8154 9 75.0143V46.5768C9 36.3454 16.997 27.8832 27.202 27.3125C27.3422 27.3023 28.6584 27.2942 30.1311 27.2901L30.4297 27.2881C30.842 27.2881 31.2138 27.5379 31.3702 27.9198C31.5266 28.3017 31.4352 28.7404 31.1406 29.0289C29.9625 30.1887 29.3125 31.7304 29.3125 33.3737C29.3125 35.0556 30.0173 36.6786 31.2483 37.8282C31.5022 38.0557 31.6363 38.4031 31.5814 38.7504C31.5103 39.1892 31.1711 39.5345 30.7323 39.5995C25.2906 40.3978 21.1875 45.1428 21.1875 50.6393V70.9518C21.1875 71.5104 21.6425 71.9675 22.2031 71.9675H25.4897C26.0503 71.9675 26.5053 72.4225 26.5053 72.9831C26.5053 73.5437 26.0503 73.9987 25.4897 73.9987H22.2031C20.5233 73.9987 19.1562 72.6317 19.1562 70.9518V50.6393C19.1562 44.7406 23.1538 39.5731 28.7052 37.9664C27.787 36.6237 27.2812 35.0211 27.2812 33.3737C27.2812 31.9315 27.657 30.5442 28.3619 29.3275C27.8114 29.3315 27.4214 29.3356 27.3219 29.3396C18.1833 29.8515 11.0312 37.422 11.0312 46.5768V75.0143C11.0312 76.6942 12.3983 78.0612 14.0781 78.0612H24.1917C24.7523 78.0612 25.2073 78.5162 25.2073 79.0768C25.2073 79.6375 24.7523 80.0925 24.1917 80.0925ZM83.1406 69.9362H52.6719C52.2412 69.9362 51.8573 69.664 51.7131 69.2557C51.5709 68.8495 51.7009 68.3965 52.0361 68.1264L57.75 63.5561V42.5143C57.75 38.594 60.9391 35.405 64.8594 35.405H83.1406C87.0609 35.405 90.25 38.594 90.25 42.5143V62.8268C90.25 66.7471 87.0609 69.9362 83.1406 69.9362ZM55.5664 67.905H83.1406C85.9397 67.905 88.2188 65.6279 88.2188 62.8268V42.5143C88.2188 39.7132 85.9397 37.4362 83.1406 37.4362H64.8594C62.0603 37.4362 59.7812 39.7132 59.7812 42.5143V64.0456C59.7812 64.3543 59.6411 64.6468 59.3994 64.8398L55.5664 67.905Z" fill="#006FBA"/>
<path d="M76.8197 43.1562C74.5792 43.918 73.2447 46.0318 73.4189 48.5544L73.625 51.5256L70.6538 51.3195C68.1364 51.1447 66.0174 52.4804 65.2549 54.7203L64.6095 56.6183C64.554 56.7817 64.5656 56.9604 64.6419 57.1151C64.7181 57.2699 64.8527 57.388 65.0161 57.4435C65.1794 57.499 65.3581 57.4874 65.5129 57.4111C65.6676 57.3349 65.7857 57.2003 65.8412 57.0369L66.2 55.9787L70.5719 60.3506L69.5137 60.7107C69.4304 60.7361 69.353 60.778 69.2861 60.834C69.2193 60.8899 69.1643 60.9587 69.1246 61.0363C69.0849 61.1138 69.0612 61.1986 69.0549 61.2855C69.0486 61.3725 69.0598 61.4598 69.0879 61.5423C69.1161 61.6248 69.1605 61.7007 69.2186 61.7657C69.2767 61.8307 69.3472 61.8833 69.4261 61.9205C69.5049 61.9576 69.5904 61.9786 69.6775 61.982C69.7646 61.9855 69.8515 61.9714 69.933 61.9405L71.8303 61.2951C74.0709 60.5333 75.4034 58.4201 75.2311 55.8968L75.0251 52.9257L77.9962 53.1317C80.5137 53.3066 82.6327 51.9708 83.3951 49.7309L84.0406 47.8329C84.0681 47.7521 84.0794 47.6666 84.0738 47.5814C84.0683 47.4962 84.046 47.413 84.0083 47.3364C83.9706 47.2598 83.9181 47.1914 83.854 47.135C83.7898 47.0787 83.7152 47.0356 83.6343 47.0081C83.5535 46.9806 83.468 46.9693 83.3828 46.9748C83.2976 46.9804 83.2144 47.0027 83.1378 47.0404C83.0612 47.0781 82.9928 47.1305 82.9364 47.1947C82.8801 47.2589 82.837 47.3335 82.8095 47.4143L82.45 48.4725L78.0781 44.1006L79.1363 43.7405C79.2197 43.7151 79.2971 43.6732 79.364 43.6173C79.4308 43.5614 79.4857 43.4926 79.5255 43.415C79.5652 43.3374 79.5889 43.2527 79.5952 43.1657C79.6015 43.0788 79.5903 42.9915 79.5621 42.909C79.534 42.8265 79.4896 42.7505 79.4315 42.6855C79.3734 42.6206 79.3029 42.5679 79.224 42.5308C79.1452 42.4936 79.0597 42.4727 78.9726 42.4693C78.8855 42.4658 78.7986 42.4799 78.7171 42.5107L76.8197 43.1562ZM75.6991 45.3811L81.1689 50.8502C80.8452 51.1473 80.4682 51.3832 80.0476 51.5503L74.9984 46.5011C75.1617 46.0881 75.3992 45.7086 75.6991 45.3811ZM71.4117 60.0653L71.2583 60.1173L66.434 55.2923L66.486 55.1389C66.6153 54.7596 66.8045 54.4035 67.0463 54.084L72.4673 59.5043C72.156 59.7383 71.8056 59.9307 71.4117 60.0653ZM72.9503 59.0688L67.4812 53.6004C67.809 53.3005 68.189 53.0632 68.6024 52.9003L73.649 57.9469C73.4868 58.3605 73.2499 58.7408 72.9503 59.0688ZM73.9344 55.9872C73.9618 56.4035 73.9343 56.8215 73.8525 57.2306L69.3187 52.6969C69.7283 52.6152 70.1469 52.5883 70.5635 52.6169L73.716 52.8353L73.9344 55.9872ZM74.7157 48.4641C74.6865 48.0471 74.7131 47.628 74.795 47.218L79.3313 51.7544C78.9387 51.8317 78.524 51.8649 78.0866 51.8343L74.9341 51.6159L74.7157 48.4641ZM82.2167 49.1589L82.1647 49.3123C82.0354 49.6916 81.8462 50.0478 81.6044 50.3673L76.1827 44.9463C76.5028 44.7049 76.8591 44.5158 77.2383 44.386L77.3917 44.334L82.2167 49.1589Z" fill="#006FBA"/>
</svg>
