<svg width="100" height="100" viewBox="0 0 100 100" fill="none" xmlns="http://www.w3.org/2000/svg">
<path d="M57.022 64.8609C56.5907 64.8609 56.2407 64.5109 56.2407 64.0797C56.2407 59.05 58.4204 54.2922 62.2235 51.0031C62.2564 50.9641 62.2954 50.9266 62.3376 50.8937C67.4001 47.0141 70.3032 41.1344 70.3032 34.7656C70.3032 23.5656 61.1907 14.4531 49.9907 14.4531C38.7907 14.4531 29.6782 23.5656 29.6782 34.7656C29.6782 41.1359 32.5798 47.0156 37.6438 50.8953C37.686 50.9281 37.7267 50.9656 37.7595 51.0063C41.5626 54.2953 43.7407 59.0516 43.7407 64.0797C43.7407 64.5109 43.3907 64.8609 42.9595 64.8609C42.5282 64.8609 42.1782 64.5109 42.1782 64.0797C42.1782 59.4672 40.1626 55.1047 36.647 52.1109C36.6267 52.0938 36.6095 52.0766 36.5907 52.0578C31.2032 47.8781 28.1157 41.5828 28.1157 34.7656C28.1157 22.7031 37.9282 12.8906 49.9907 12.8906C62.0532 12.8906 71.8657 22.7031 71.8657 34.7656C71.8657 41.5828 68.7767 47.8781 63.3892 52.0563C63.3704 52.075 63.3532 52.0922 63.3329 52.1109C59.8189 55.1047 57.8032 59.4672 57.8032 64.0797C57.8032 64.5125 57.4548 64.8609 57.022 64.8609Z" fill="#006FBA"/>
<path d="M42.9595 70.7031C42.5282 70.7031 42.1782 70.3531 42.1782 69.9219V63.6719C42.1782 63.2406 42.5282 62.8906 42.9595 62.8906C43.3907 62.8906 43.7407 63.2406 43.7407 63.6719V69.9219C43.7407 70.3531 43.3923 70.7031 42.9595 70.7031ZM57.022 80.0781H42.9595C42.5282 80.0781 42.1782 79.7281 42.1782 79.2969V74.6094C42.1782 74.1781 42.5282 73.8281 42.9595 73.8281C43.3907 73.8281 43.7407 74.1781 43.7407 74.6094V78.5156H56.2407V74.6094C56.2407 74.1781 56.5907 73.8281 57.022 73.8281C57.4532 73.8281 57.8032 74.1781 57.8032 74.6094V79.2969C57.8032 79.7281 57.4548 80.0781 57.022 80.0781ZM57.022 70.7031C56.5907 70.7031 56.2407 70.3531 56.2407 69.9219V63.6719C56.2407 63.2406 56.5907 62.8906 57.022 62.8906C57.4532 62.8906 57.8032 63.2406 57.8032 63.6719V69.9219C57.8032 70.3531 57.4548 70.7031 57.022 70.7031Z" fill="#006FBA"/>
<path d="M52.3345 80.0781H47.647C47.2157 80.0781 46.8657 79.7281 46.8657 79.2969V74.6094C46.8657 74.1781 47.2157 73.8281 47.647 73.8281C48.0782 73.8281 48.4282 74.1781 48.4282 74.6094V78.5156H51.5532V74.6094C51.5532 74.1781 51.9032 73.8281 52.3345 73.8281C52.7657 73.8281 53.1157 74.1781 53.1157 74.6094V79.2969C53.1157 79.7281 52.7673 80.0781 52.3345 80.0781Z" fill="#006FBA"/>
<path d="M49.9906 91.0154C49.7266 91.0154 49.4828 90.8826 49.3375 90.6623L42.3063 79.9482C42.1485 79.7076 42.136 79.4014 42.2719 79.1482C42.4094 78.8951 42.6735 78.7373 42.9594 78.7373H57.0219C57.3094 78.7373 57.5734 78.8951 57.7094 79.1482C57.8453 79.4014 57.8313 79.7076 57.675 79.9482L50.6438 90.6623C50.4984 90.8826 50.2547 91.0154 49.9906 91.0154ZM44.4063 80.3014L49.9906 88.8107L55.575 80.3014H44.4063Z" fill="#006FBA"/>
<path d="M53.0673 86.3281H46.9142C46.4829 86.3281 46.1329 85.9781 46.1329 85.5469C46.1329 85.1156 46.4829 84.7656 46.9142 84.7656H53.0673C53.4985 84.7656 53.8485 85.1156 53.8485 85.5469C53.8485 85.9781 53.4985 86.3281 53.0673 86.3281ZM57.8032 75.3906H42.1782C40.4548 75.3906 39.0532 73.9891 39.0532 72.2656C39.0532 70.5422 40.4548 69.1406 42.1782 69.1406H57.8032C59.5267 69.1406 60.9282 70.5422 60.9282 72.2656C60.9282 73.9891 59.5267 75.3906 57.8032 75.3906ZM42.1782 70.7031C41.3157 70.7031 40.6157 71.4047 40.6157 72.2656C40.6157 73.1266 41.3157 73.8281 42.1782 73.8281H57.8032C58.6657 73.8281 59.3657 73.1266 59.3657 72.2656C59.3657 71.4047 58.6657 70.7031 57.8032 70.7031H42.1782ZM49.9735 41.0156C49.9673 41.0156 49.961 41.0156 49.9532 41.0156C48.5813 41.0109 47.5767 40.4922 46.6907 40.0359C46.4938 39.9344 46.2985 39.8344 46.1001 39.7406C45.9157 39.8344 45.7423 39.925 45.5767 40.0109C44.5017 40.5719 43.6548 41.0172 42.1438 41.0172C41.7126 41.0172 41.3626 40.6672 41.3626 40.2359C41.3626 39.8047 41.7126 39.4547 42.1438 39.4547C43.272 39.4547 43.8673 39.1438 44.8532 38.6266C45.1235 38.4844 45.4142 38.3328 45.7407 38.1734C45.9438 38.075 46.1767 38.0688 46.3829 38.1547C46.7313 38.3 47.0673 38.4719 47.4048 38.6469C48.2063 39.0594 48.961 39.45 49.9579 39.4531C49.9626 39.4531 49.9673 39.4531 49.972 39.4531C50.9548 39.4531 51.7048 39.0641 52.5001 38.6516C52.8407 38.475 53.1798 38.3 53.5282 38.1547C53.7204 38.0734 53.9376 38.0734 54.1298 38.1547C54.436 38.2828 54.7517 38.4328 55.0751 38.5859C55.9704 39.0125 56.8985 39.4531 57.7673 39.4531C58.1985 39.4531 58.5485 39.8031 58.5485 40.2344C58.5485 40.6656 58.1985 41.0156 57.7673 41.0156C56.547 41.0156 55.4079 40.475 54.4048 39.9969C54.211 39.9047 54.0204 39.8141 53.8329 39.7297C53.6267 39.8281 53.4251 39.9328 53.2204 40.0391C52.3392 40.4969 51.3376 41.0156 49.9735 41.0156Z" fill="#006FBA"/>
<path d="M52.3344 70.7034H47.6469C47.2157 70.7034 46.8657 70.3534 46.8657 69.9222V55.2706C46.8657 49.9863 44.9547 44.8847 41.4891 40.905C41.2047 40.58 41.2391 40.0863 41.5657 39.8019C41.8891 39.5175 42.3828 39.5503 42.6672 39.8769C46.3828 44.1409 48.4297 49.6081 48.4297 55.2691V69.1394H51.5547V55.2097C51.5547 49.5441 53.6032 44.0769 57.3188 39.8128C57.6016 39.4863 58.0953 39.4534 58.4203 39.7378C58.7469 40.0222 58.7797 40.5159 58.4969 40.8409C55.0266 44.8191 53.1172 49.9238 53.1172 55.2112V69.9222C53.1157 70.3534 52.7672 70.7034 52.3344 70.7034Z" fill="#006FBA"/>
<path d="M67.1313 59.0752C60.6454 59.0752 50.5548 53.4549 41.1517 44.0534C34.4673 37.369 29.3923 29.9706 27.2282 23.7581C25.5438 18.9174 25.772 15.2377 27.8938 13.1174C30.5923 10.419 35.7767 10.7846 42.5079 14.1502C42.8938 14.344 43.0501 14.8127 42.8579 15.1987C42.6642 15.5862 42.1985 15.7393 41.8095 15.5487C35.8204 12.5534 31.1517 12.069 29.0001 14.2221C27.3563 15.8659 27.2532 19.069 28.7063 23.2424C30.7938 29.2409 35.7345 36.4237 42.2579 42.9471C53.6376 54.3268 66.7923 60.3987 70.9845 56.2049C73.2485 53.9393 72.5532 48.7659 69.1251 42.3643C68.9204 41.9831 69.0642 41.5096 69.4438 41.3065C69.822 41.1049 70.297 41.244 70.5016 41.6268C74.3313 48.7737 74.9095 54.4909 72.0907 57.3112C70.8923 58.5065 69.1923 59.0752 67.1313 59.0752Z" fill="#006FBA"/>
<path d="M32.8484 59.0856C30.7578 59.0856 29.0765 58.495 27.8921 57.3107C25.0718 54.4903 25.65 48.7747 29.4812 41.6263C29.6859 41.245 30.1609 41.1044 30.539 41.306C30.9187 41.5091 31.0625 41.9841 30.8578 42.3638C27.4281 48.7653 26.7328 53.9388 28.9984 56.2044C30.9812 58.1888 35.2156 57.9122 40.614 55.4497C46.0812 52.9544 52.1593 48.5138 57.725 42.9466C63.1218 37.5497 67.4874 31.6341 70.0156 26.2919C72.6781 20.6685 73.0312 16.2685 70.9828 14.22C68.8156 12.0497 63.889 12.6138 57.8171 15.7263C57.4328 15.9231 56.9624 15.7716 56.764 15.3872C56.5671 15.0028 56.7203 14.5325 57.1031 14.3356C63.9078 10.8466 69.3734 10.4013 72.0875 13.1153C74.6671 15.695 74.4343 20.6122 71.4281 26.9591C68.8234 32.4606 64.35 38.5294 58.8296 44.0497C53.1343 49.7466 46.8953 54.2997 41.264 56.87C38.0343 58.3466 35.1875 59.0841 32.8484 59.0856Z" fill="#006FBA"/>
<path d="M49.9907 47.7141C32.4673 47.7141 18.7407 42.2234 18.7407 35.2141C18.7407 31.3141 23.0282 27.7312 30.5048 25.3844C30.9173 25.2594 31.3548 25.4844 31.4829 25.8953C31.6126 26.3078 31.3845 26.7453 30.972 26.875C24.2923 28.9719 20.3032 32.0891 20.3032 35.2141C20.3032 41.1422 33.8985 46.1516 49.9907 46.1516C66.0829 46.1516 79.6782 41.1422 79.6782 35.2141C79.6782 32.0891 75.6876 28.9719 69.0048 26.875C68.5923 26.7453 68.3642 26.3078 68.4923 25.8953C68.622 25.4844 69.061 25.2547 69.472 25.3844C76.9517 27.7312 81.2407 31.3141 81.2407 35.2156C81.2407 42.2234 67.5142 47.7141 49.9907 47.7141Z" fill="#006FBA"/>
<path d="M29.6968 15.3262C30.9912 15.3262 32.0405 14.2768 32.0405 12.9824C32.0405 11.688 30.9912 10.6387 29.6968 10.6387C28.4024 10.6387 27.353 11.688 27.353 12.9824C27.353 14.2768 28.4024 15.3262 29.6968 15.3262Z" fill="white"/>
<path d="M29.6968 16.1074C27.9733 16.1074 26.5718 14.7059 26.5718 12.9824C26.5718 11.259 27.9733 9.85742 29.6968 9.85742C31.4202 9.85742 32.8218 11.259 32.8218 12.9824C32.8218 14.7059 31.4187 16.1074 29.6968 16.1074ZM29.6968 11.4199C28.8343 11.4199 28.1343 12.1215 28.1343 12.9824C28.1343 13.8434 28.8343 14.5449 29.6968 14.5449C30.5593 14.5449 31.2593 13.8434 31.2593 12.9824C31.2593 12.1215 30.5593 11.4199 29.6968 11.4199Z" fill="#006FBA"/>
<path d="M78.1343 41.8887C79.4287 41.8887 80.478 40.8393 80.478 39.5449C80.478 38.2505 79.4287 37.2012 78.1343 37.2012C76.8399 37.2012 75.7905 38.2505 75.7905 39.5449C75.7905 40.8393 76.8399 41.8887 78.1343 41.8887Z" fill="white"/>
<path d="M78.1343 42.6699C76.4108 42.6699 75.0093 41.2684 75.0093 39.5449C75.0093 37.8215 76.4108 36.4199 78.1343 36.4199C79.8577 36.4199 81.2593 37.8215 81.2593 39.5449C81.2593 41.2684 79.8562 42.6699 78.1343 42.6699ZM78.1343 37.9824C77.2718 37.9824 76.5718 38.684 76.5718 39.5449C76.5718 40.4059 77.2718 41.1074 78.1343 41.1074C78.9968 41.1074 79.6968 40.4059 79.6968 39.5449C79.6968 38.684 78.9968 37.9824 78.1343 37.9824Z" fill="#006FBA"/>
<path d="M29.6968 59.0762C30.9912 59.0762 32.0405 58.0268 32.0405 56.7324C32.0405 55.438 30.9912 54.3887 29.6968 54.3887C28.4024 54.3887 27.353 55.438 27.353 56.7324C27.353 58.0268 28.4024 59.0762 29.6968 59.0762Z" fill="white"/>
<path d="M29.6968 59.8574C27.9733 59.8574 26.5718 58.4559 26.5718 56.7324C26.5718 55.009 27.9733 53.6074 29.6968 53.6074C31.4202 53.6074 32.8218 55.009 32.8218 56.7324C32.8218 58.4559 31.4187 59.8574 29.6968 59.8574ZM29.6968 55.1699C28.8343 55.1699 28.1343 55.8715 28.1343 56.7324C28.1343 57.5934 28.8343 58.2949 29.6968 58.2949C30.5593 58.2949 31.2593 57.5934 31.2593 56.7324C31.2593 55.8715 30.5593 55.1699 29.6968 55.1699Z" fill="#006FBA"/>
<path d="M49.9907 11.3281C50.4222 11.3281 50.772 10.9783 50.772 10.5469C50.772 10.1154 50.4222 9.76562 49.9907 9.76562C49.5593 9.76562 49.2095 10.1154 49.2095 10.5469C49.2095 10.9783 49.5593 11.3281 49.9907 11.3281Z" fill="#006FBA"/>
<path d="M74.2095 35.5469C74.6409 35.5469 74.9907 35.1971 74.9907 34.7656C74.9907 34.3342 74.6409 33.9844 74.2095 33.9844C73.778 33.9844 73.4282 34.3342 73.4282 34.7656C73.4282 35.1971 73.778 35.5469 74.2095 35.5469Z" fill="#006FBA"/>
<path d="M25.772 35.5469C26.2034 35.5469 26.5532 35.1971 26.5532 34.7656C26.5532 34.3342 26.2034 33.9844 25.772 33.9844C25.3405 33.9844 24.9907 34.3342 24.9907 34.7656C24.9907 35.1971 25.3405 35.5469 25.772 35.5469Z" fill="#006FBA"/>
<path d="M67.668 18.193C67.9731 17.8879 67.9731 17.3933 67.668 17.0882C67.3629 16.7831 66.8683 16.7831 66.5632 17.0882C66.2581 17.3933 66.2581 17.888 66.5632 18.193C66.8683 18.4981 67.3629 18.4981 67.668 18.193Z" fill="#006FBA"/>
<path d="M33.4175 52.4416C33.7226 52.1365 33.7226 51.6418 33.4175 51.3367C33.1124 51.0316 32.6178 51.0316 32.3127 51.3367C32.0076 51.6418 32.0076 52.1365 32.3127 52.4416C32.6178 52.7467 33.1125 52.7467 33.4175 52.4416Z" fill="#006FBA"/>
<path d="M67.668 52.443C67.9731 52.1379 67.9731 51.6433 67.668 51.3382C67.3629 51.0331 66.8682 51.0331 66.5632 51.3382C66.2581 51.6433 66.2581 52.138 66.5632 52.443C66.8683 52.7481 67.3629 52.7481 67.668 52.443Z" fill="#006FBA"/>
<path d="M33.418 18.193C33.7231 17.8879 33.7231 17.3933 33.418 17.0882C33.1129 16.7831 32.6183 16.7831 32.3132 17.0882C32.0081 17.3933 32.0081 17.888 32.3132 18.193C32.6183 18.4981 33.1129 18.4981 33.418 18.193Z" fill="#006FBA"/>
<path d="M41.0207 13.1119C41.4193 12.9468 41.6086 12.4898 41.4435 12.0911C41.2783 11.6925 40.8213 11.5032 40.4227 11.6683C40.0241 11.8334 39.8348 12.2904 39.9999 12.6891C40.165 13.0877 40.622 13.277 41.0207 13.1119Z" fill="#006FBA"/>
<path d="M59.9796 12.6896C60.1447 12.291 59.9554 11.834 59.5568 11.6689C59.1582 11.5038 58.7011 11.6931 58.536 12.0917C58.3709 12.4903 58.5602 12.9473 58.9588 13.1124C59.3575 13.2776 59.8145 13.0883 59.9796 12.6896Z" fill="#006FBA"/>
<path d="M45.4189 11.7786C45.8421 11.6944 46.1169 11.2832 46.0328 10.86C45.9486 10.4368 45.5373 10.1619 45.1141 10.2461C44.691 10.3302 44.4161 10.7415 44.5003 11.1647C44.5844 11.5879 44.9957 11.8627 45.4189 11.7786Z" fill="#006FBA"/>
<path d="M73.8974 30.8069C74.3206 30.7227 74.5954 30.3115 74.5113 29.8883C74.4271 29.4651 74.0159 29.1903 73.5927 29.2744C73.1695 29.3585 72.8946 29.7698 72.9788 30.193C73.0629 30.6162 73.4742 30.891 73.8974 30.8069Z" fill="#006FBA"/>
<path d="M26.3908 40.2571C26.814 40.1729 27.0888 39.7617 27.0047 39.3385C26.9205 38.9153 26.5093 38.6404 26.0861 38.7246C25.6629 38.8087 25.388 39.22 25.4722 39.6432C25.5563 40.0664 25.9676 40.3412 26.3908 40.2571Z" fill="#006FBA"/>
<path d="M64.0943 15.0608C64.334 14.702 64.2375 14.2169 63.8788 13.9772C63.52 13.7374 63.0348 13.8339 62.7951 14.1927C62.5554 14.5515 62.6519 15.0366 63.0107 15.2763C63.3694 15.516 63.8546 15.4195 64.0943 15.0608Z" fill="#006FBA"/>
<path d="M37.1866 55.3357C37.4263 54.9769 37.3298 54.4918 36.971 54.2521C36.6123 54.0123 36.1271 54.1088 35.8874 54.4676C35.6477 54.8264 35.7442 55.3115 36.103 55.5512C36.4617 55.7909 36.9469 55.6944 37.1866 55.3357Z" fill="#006FBA"/>
<path d="M70.7767 48.6526C71.0164 48.2938 70.9199 47.8087 70.5611 47.5689C70.2024 47.3292 69.7172 47.4257 69.4775 47.7845C69.2378 48.1433 69.3343 48.6284 69.693 48.8681C70.0518 49.1078 70.537 49.0113 70.7767 48.6526Z" fill="#006FBA"/>
<path d="M30.5032 21.7429C30.7429 21.3842 30.6464 20.899 30.2877 20.6593C29.9289 20.4196 29.4438 20.5161 29.2041 20.8748C28.9643 21.2336 29.0608 21.7187 29.4196 21.9585C29.7784 22.1982 30.2635 22.1017 30.5032 21.7429Z" fill="#006FBA"/>
<path d="M36.9681 15.2768C37.3269 15.037 37.4234 14.5519 37.1837 14.1931C36.9439 13.8344 36.4588 13.7379 36.1 13.9776C35.7413 14.2173 35.6448 14.7025 35.8845 15.0612C36.1242 15.42 36.6093 15.5165 36.9681 15.2768Z" fill="#006FBA"/>
<path d="M63.8805 55.5507C64.2392 55.311 64.3357 54.8258 64.096 54.4671C63.8563 54.1083 63.3711 54.0118 63.0124 54.2515C62.6536 54.4912 62.5571 54.9764 62.7968 55.3351C63.0365 55.6939 63.5217 55.7904 63.8805 55.5507Z" fill="#006FBA"/>
<path d="M70.5609 21.9589C70.9196 21.7192 71.0161 21.234 70.7764 20.8753C70.5367 20.5165 70.0516 20.42 69.6928 20.6597C69.334 20.8994 69.2375 21.3846 69.4773 21.7433C69.717 22.1021 70.2021 22.1986 70.5609 21.9589Z" fill="#006FBA"/>
<path d="M30.2877 48.869C30.6464 48.6293 30.7429 48.1442 30.5032 47.7854C30.2635 47.4267 29.7784 47.3302 29.4196 47.5699C29.0608 47.8096 28.9643 48.2947 29.2041 48.6535C29.4438 49.0122 29.9289 49.1088 30.2877 48.869Z" fill="#006FBA"/>
<path d="M55.4835 11.1641C55.5677 10.7409 55.2929 10.3296 54.8697 10.2454C54.4465 10.1613 54.0352 10.4361 53.951 10.8593C53.8668 11.2824 54.1416 11.6937 54.5648 11.7779C54.988 11.8621 55.3993 11.5873 55.4835 11.1641Z" fill="#006FBA"/>
<path d="M74.5116 39.6416C74.5957 39.2185 74.3209 38.8072 73.8978 38.723C73.4746 38.6388 73.0633 38.9136 72.9791 39.3368C72.8949 39.76 73.1697 40.1713 73.5929 40.2555C74.0161 40.3396 74.4274 40.0648 74.5116 39.6416Z" fill="#006FBA"/>
<path d="M27.0037 30.1929C27.0879 29.7697 26.8131 29.3584 26.3899 29.2743C25.9668 29.1901 25.5555 29.4649 25.4713 29.8881C25.3871 30.3112 25.6619 30.7225 26.0851 30.8067C26.5083 30.8909 26.9196 30.6161 27.0037 30.1929Z" fill="#006FBA"/>
</svg>
