<svg width="100" height="100" viewBox="0 0 100 100" fill="none" xmlns="http://www.w3.org/2000/svg">
<path d="M52.3111 75H19.4986C19.0673 75 18.7173 74.65 18.7173 74.2188C18.7173 73.7875 19.0673 73.4375 19.4986 73.4375H52.3111C52.7423 73.4375 53.0923 73.7875 53.0923 74.2188C53.0923 74.65 52.7439 75 52.3111 75ZM64.8111 57.8125H7.15015C6.7189 57.8125 6.3689 57.4625 6.3689 57.0312C6.3689 56.6 6.7189 56.25 7.15015 56.25H64.8111C65.2423 56.25 65.5923 56.6 65.5923 57.0312C65.5923 57.4625 65.2439 57.8125 64.8111 57.8125Z" fill="#006FBA"/>
<path d="M42.936 75H28.8735C28.4423 75 28.0923 74.65 28.0923 74.2188V64.8438C28.0923 64.4125 28.4423 64.0625 28.8735 64.0625H42.936C43.3673 64.0625 43.7173 64.4125 43.7173 64.8438V74.2188C43.7173 74.65 43.3688 75 42.936 75ZM29.6548 73.4375H42.1548V65.625H29.6548V73.4375Z" fill="#006FBA"/>
<path d="M35.9048 62.5C36.7677 62.5 37.4673 61.8004 37.4673 60.9375C37.4673 60.0746 36.7677 59.375 35.9048 59.375C35.0418 59.375 34.3423 60.0746 34.3423 60.9375C34.3423 61.8004 35.0418 62.5 35.9048 62.5Z" fill="#006FBA"/>
<path d="M21.8423 46.875C22.2738 46.875 22.6235 46.5252 22.6235 46.0938C22.6235 45.6623 22.2738 45.3125 21.8423 45.3125C21.4108 45.3125 21.061 45.6623 21.061 46.0938C21.061 46.5252 21.4108 46.875 21.8423 46.875Z" fill="#006FBA"/>
<path d="M60.1561 53.125H11.7186C11.2874 53.125 10.9374 52.775 10.9374 52.3438V36.5797C10.9374 36.1484 11.2874 35.7984 11.7186 35.7984C12.1499 35.7984 12.4999 36.1484 12.4999 36.5797V51.5625H59.3749V36.7188C59.3749 36.2875 59.7249 35.9375 60.1561 35.9375C60.5874 35.9375 60.9374 36.2875 60.9374 36.7188V52.3438C60.9374 52.775 60.5874 53.125 60.1561 53.125ZM61.7186 35.1562C61.4202 35.1562 61.1342 34.9844 61.0046 34.6922L58.0858 28.125H13.7889L10.8702 34.6938C10.6936 35.0875 10.2327 35.2641 9.83893 35.0906C9.44518 34.9156 9.26706 34.4531 9.44206 34.0594L12.5671 27.0281C12.6921 26.7438 12.9733 26.5625 13.2811 26.5625H58.5936C58.9014 26.5625 59.1827 26.7438 59.3077 27.0266L62.4327 34.0578C62.6077 34.4516 62.4296 34.9141 62.0358 35.0891C61.9327 35.1359 61.8249 35.1562 61.7186 35.1562Z" fill="#006FBA"/>
<path d="M14.8453 35.1565C14.8156 35.1565 14.789 35.155 14.7609 35.1518C14.3328 35.1065 14.0203 34.7221 14.0672 34.2925L14.8156 27.2612C14.8609 26.83 15.2765 26.5268 15.675 26.5675C16.1031 26.6128 16.4156 26.9971 16.3687 27.4268L15.6203 34.4581C15.5781 34.8596 15.239 35.1565 14.8453 35.1565ZM19.5328 35.1565C19.5031 35.1565 19.4765 35.155 19.4484 35.1518C19.0203 35.1065 18.7078 34.7221 18.7547 34.2925L19.5031 27.2612C19.5484 26.83 19.9593 26.5268 20.3625 26.5675C20.7906 26.6128 21.1031 26.9971 21.0562 27.4268L20.3078 34.4581C20.2656 34.8596 19.9265 35.1565 19.5328 35.1565ZM24.2203 35.1565C24.1906 35.1565 24.164 35.155 24.1359 35.1518C23.7078 35.1065 23.3953 34.7221 23.4422 34.2925L24.1906 27.2612C24.2359 26.83 24.6531 26.5268 25.05 26.5675C25.4781 26.6128 25.7906 26.9971 25.7437 27.4268L24.9953 34.4581C24.9531 34.8596 24.614 35.1565 24.2203 35.1565ZM28.9078 35.1565C28.8781 35.1565 28.8515 35.155 28.8234 35.1518C28.3953 35.1065 28.0828 34.7221 28.1297 34.2925L28.8781 27.2612C28.9234 26.83 29.3359 26.5268 29.7375 26.5675C30.1656 26.6128 30.4781 26.9971 30.4312 27.4268L29.6828 34.4581C29.6406 34.8596 29.3015 35.1565 28.9078 35.1565ZM33.5937 35.1565C33.164 35.1565 32.814 34.8097 32.8125 34.3784L32.7797 27.3472C32.7781 26.9159 33.1265 26.5643 33.5578 26.5628C33.5578 26.5628 33.5593 26.5628 33.5609 26.5628C33.9906 26.5628 34.3406 26.9096 34.3422 27.3409L34.375 34.3721C34.3765 34.8034 34.0281 35.155 33.5968 35.1565C33.5968 35.1565 33.5953 35.1565 33.5937 35.1565ZM57.0297 35.1565C56.639 35.1565 56.3015 34.8628 56.2547 34.4659L55.4406 27.4347C55.3922 27.0065 55.6984 26.619 56.1265 26.569C56.5484 26.5128 56.9422 26.8268 56.9937 27.255L57.8078 34.2862C57.8562 34.7143 57.55 35.1018 57.1218 35.1518C57.0906 35.1565 57.0609 35.1565 57.0297 35.1565ZM52.3422 35.1565C51.9515 35.1565 51.614 34.8628 51.5672 34.4659L50.7531 27.4347C50.7047 27.0065 51.0109 26.619 51.439 26.569C51.8531 26.5128 52.2531 26.8268 52.3062 27.255L53.1203 34.2862C53.1687 34.7143 52.8625 35.1018 52.4343 35.1518C52.4031 35.1565 52.3734 35.1565 52.3422 35.1565ZM47.6547 35.1565C47.264 35.1565 46.9265 34.8628 46.8797 34.4659L46.0656 27.4347C46.0172 27.0065 46.3234 26.619 46.7515 26.569C47.1672 26.5128 47.5656 26.8268 47.6187 27.255L48.4328 34.2862C48.4812 34.7143 48.175 35.1018 47.7468 35.1518C47.7156 35.1565 47.6859 35.1565 47.6547 35.1565ZM42.9672 35.1565C42.5765 35.1565 42.239 34.8628 42.1922 34.4659L41.3781 27.4347C41.3297 27.0065 41.6359 26.619 42.064 26.569C42.4828 26.5128 42.8781 26.8268 42.9312 27.255L43.7453 34.2862C43.7937 34.7143 43.4875 35.1018 43.0593 35.1518C43.0281 35.1565 42.9984 35.1565 42.9672 35.1565ZM38.2812 35.1565C37.8515 35.1565 37.5015 34.8097 37.5 34.3784L37.4672 27.3472C37.4656 26.9159 37.814 26.5643 38.2453 26.5628C38.2453 26.5628 38.2468 26.5628 38.2484 26.5628C38.6781 26.5628 39.0281 26.9096 39.0297 27.3409L39.0625 34.3721C39.064 34.8034 38.7156 35.155 38.2843 35.1565C38.2843 35.1565 38.2828 35.1565 38.2812 35.1565Z" fill="#006FBA"/>
<path d="M17.1875 37.5C15.4641 37.5 14.0625 36.0984 14.0625 34.375C14.0625 33.9438 14.4125 33.5938 14.8438 33.5938C15.275 33.5938 15.625 33.9438 15.625 34.375C15.625 35.2359 16.325 35.9375 17.1875 35.9375C18.05 35.9375 18.75 35.2359 18.75 34.375C18.75 33.9438 19.1 33.5938 19.5312 33.5938C19.9625 33.5938 20.3125 33.9438 20.3125 34.375C20.3125 36.0984 18.9109 37.5 17.1875 37.5Z" fill="#006FBA"/>
<path d="M12.5 37.5C10.7766 37.5 9.375 36.0984 9.375 34.375C9.375 33.9438 9.725 33.5938 10.1562 33.5938C10.5875 33.5938 10.9375 33.9438 10.9375 34.375C10.9375 35.2359 11.6375 35.9375 12.5 35.9375C13.3625 35.9375 14.0625 35.2359 14.0625 34.375C14.0625 33.9438 14.4125 33.5938 14.8438 33.5938C15.275 33.5938 15.625 33.9438 15.625 34.375C15.625 36.0984 14.2234 37.5 12.5 37.5ZM21.875 37.5C20.1516 37.5 18.75 36.0984 18.75 34.375C18.75 33.9438 19.1 33.5938 19.5312 33.5938C19.9625 33.5938 20.3125 33.9438 20.3125 34.375C20.3125 35.2359 21.0125 35.9375 21.875 35.9375C22.7375 35.9375 23.4375 35.2359 23.4375 34.375C23.4375 33.9438 23.7875 33.5938 24.2188 33.5938C24.65 33.5938 25 33.9438 25 34.375C25 36.0984 23.5984 37.5 21.875 37.5Z" fill="#006FBA"/>
<path d="M26.5625 37.5C24.8391 37.5 23.4375 36.0984 23.4375 34.375C23.4375 33.9438 23.7875 33.5938 24.2188 33.5938C24.65 33.5938 25 33.9438 25 34.375C25 35.2359 25.7 35.9375 26.5625 35.9375C27.425 35.9375 28.125 35.2359 28.125 34.375C28.125 33.9438 28.475 33.5938 28.9062 33.5938C29.3375 33.5938 29.6875 33.9438 29.6875 34.375C29.6875 36.0984 28.2859 37.5 26.5625 37.5Z" fill="#006FBA"/>
<path d="M31.25 37.5C29.5266 37.5 28.125 36.0984 28.125 34.375C28.125 33.9438 28.475 33.5938 28.9062 33.5938C29.3375 33.5938 29.6875 33.9438 29.6875 34.375C29.6875 35.2359 30.3875 35.9375 31.25 35.9375C32.1125 35.9375 32.8125 35.2359 32.8125 34.375C32.8125 33.9438 33.1625 33.5938 33.5938 33.5938C34.025 33.5938 34.375 33.9438 34.375 34.375C34.375 36.0984 32.9734 37.5 31.25 37.5Z" fill="#006FBA"/>
<path d="M35.9375 37.5C34.2141 37.5 32.8125 36.0984 32.8125 34.375C32.8125 33.9438 33.1625 33.5938 33.5938 33.5938C34.025 33.5938 34.375 33.9438 34.375 34.375C34.375 35.2359 35.075 35.9375 35.9375 35.9375C36.8 35.9375 37.5 35.2359 37.5 34.375C37.5 33.9438 37.85 33.5938 38.2812 33.5938C38.7125 33.5938 39.0625 33.9438 39.0625 34.375C39.0625 36.0984 37.6609 37.5 35.9375 37.5Z" fill="#006FBA"/>
<path d="M40.625 37.5C38.9016 37.5 37.5 36.0984 37.5 34.375C37.5 33.9438 37.85 33.5938 38.2812 33.5938C38.7125 33.5938 39.0625 33.9438 39.0625 34.375C39.0625 35.2359 39.7625 35.9375 40.625 35.9375C41.4875 35.9375 42.1875 35.2359 42.1875 34.375C42.1875 33.9438 42.5375 33.5938 42.9688 33.5938C43.4 33.5938 43.75 33.9438 43.75 34.375C43.75 36.0984 42.3484 37.5 40.625 37.5Z" fill="#006FBA"/>
<path d="M45.3125 37.5C43.5891 37.5 42.1875 36.0984 42.1875 34.375C42.1875 33.9438 42.5375 33.5938 42.9688 33.5938C43.4 33.5938 43.75 33.9438 43.75 34.375C43.75 35.2359 44.45 35.9375 45.3125 35.9375C46.175 35.9375 46.875 35.2359 46.875 34.375C46.875 33.9438 47.225 33.5938 47.6562 33.5938C48.0875 33.5938 48.4375 33.9438 48.4375 34.375C48.4375 36.0984 47.0359 37.5 45.3125 37.5Z" fill="#006FBA"/>
<path d="M50 37.5C48.2766 37.5 46.875 36.0984 46.875 34.375C46.875 33.9438 47.225 33.5938 47.6562 33.5938C48.0875 33.5938 48.4375 33.9438 48.4375 34.375C48.4375 35.2359 49.1375 35.9375 50 35.9375C50.8625 35.9375 51.5625 35.2359 51.5625 34.375C51.5625 33.9438 51.9125 33.5938 52.3438 33.5938C52.775 33.5938 53.125 33.9438 53.125 34.375C53.125 36.0984 51.7234 37.5 50 37.5Z" fill="#006FBA"/>
<path d="M54.6875 37.5C52.9641 37.5 51.5625 36.0984 51.5625 34.375C51.5625 33.9438 51.9125 33.5938 52.3438 33.5938C52.775 33.5938 53.125 33.9438 53.125 34.375C53.125 35.2359 53.825 35.9375 54.6875 35.9375C55.55 35.9375 56.25 35.2359 56.25 34.375C56.25 33.9438 56.6 33.5938 57.0312 33.5938C57.4625 33.5938 57.8125 33.9438 57.8125 34.375C57.8125 36.0984 56.4109 37.5 54.6875 37.5Z" fill="#006FBA"/>
<path d="M59.375 37.5C57.6516 37.5 56.25 36.0984 56.25 34.375C56.25 33.9438 56.6 33.5938 57.0312 33.5938C57.4625 33.5938 57.8125 33.9438 57.8125 34.375C57.8125 35.2359 58.5125 35.9375 59.375 35.9375C60.2375 35.9375 60.9375 35.2359 60.9375 34.375C60.9375 33.9438 61.2875 33.5938 61.7188 33.5938C62.15 33.5938 62.5 33.9438 62.5 34.375C62.5 36.0984 61.0984 37.5 59.375 37.5ZM27.3438 53.125H19.5312C19.1 53.125 18.75 52.775 18.75 52.3438V39.8438C18.75 39.4125 19.1 39.0625 19.5312 39.0625H27.3438C27.775 39.0625 28.125 39.4125 28.125 39.8438V52.3438C28.125 52.775 27.775 53.125 27.3438 53.125ZM20.3125 51.5625H26.5625V40.625H20.3125V51.5625ZM52.3438 48.4375H35.1562C34.725 48.4375 34.375 48.0875 34.375 47.6562V39.8438C34.375 39.4125 34.725 39.0625 35.1562 39.0625H52.3438C52.775 39.0625 53.125 39.4125 53.125 39.8438V47.6562C53.125 48.0875 52.775 48.4375 52.3438 48.4375ZM35.9375 46.875H51.5625V40.625H35.9375V46.875Z" fill="#006FBA"/>
<path d="M53.9062 40.625H33.5938C33.1625 40.625 32.8125 40.275 32.8125 39.8438C32.8125 39.4125 33.1625 39.0625 33.5938 39.0625H53.9062C54.3375 39.0625 54.6875 39.4125 54.6875 39.8438C54.6875 40.275 54.3375 40.625 53.9062 40.625ZM35.1562 48.4375H33.5938C33.1625 48.4375 32.8125 48.0875 32.8125 47.6562C32.8125 47.225 33.1625 46.875 33.5938 46.875H35.1562C35.5875 46.875 35.9375 47.225 35.9375 47.6562C35.9375 48.0875 35.5875 48.4375 35.1562 48.4375ZM53.9062 48.4375H52.3438C51.9125 48.4375 51.5625 48.0875 51.5625 47.6562C51.5625 47.225 51.9125 46.875 52.3438 46.875H53.9062C54.3375 46.875 54.6875 47.225 54.6875 47.6562C54.6875 48.0875 54.3375 48.4375 53.9062 48.4375ZM64.8438 71.875H63.2812C62.85 71.875 62.5 71.525 62.5 71.0938C62.5 70.6625 62.85 70.3125 63.2812 70.3125H64.8438C65.275 70.3125 65.625 70.6625 65.625 71.0938C65.625 71.525 65.275 71.875 64.8438 71.875ZM83.5938 71.875H82.0312C81.6 71.875 81.25 71.525 81.25 71.0938C81.25 70.6625 81.6 70.3125 82.0312 70.3125H83.5938C84.025 70.3125 84.375 70.6625 84.375 71.0938C84.375 71.525 84.025 71.875 83.5938 71.875ZM74.2188 57.8125H72.6562C72.225 57.8125 71.875 57.4625 71.875 57.0312C71.875 56.6 72.225 56.25 72.6562 56.25H74.2188C74.65 56.25 75 56.6 75 57.0312C75 57.4625 74.65 57.8125 74.2188 57.8125Z" fill="#006FBA"/>
<path d="M74.2188 75H60.1562C59.725 75 59.375 74.65 59.375 74.2188V60.1562C59.375 59.725 59.725 59.375 60.1562 59.375H74.2188C74.65 59.375 75 59.725 75 60.1562V74.2188C75 74.65 74.65 75 74.2188 75ZM60.9375 73.4375H73.4375V60.9375H60.9375V73.4375ZM92.9688 75H78.9062C78.475 75 78.125 74.65 78.125 74.2188V60.1562C78.125 59.725 78.475 59.375 78.9062 59.375H92.9688C93.4 59.375 93.75 59.725 93.75 60.1562V74.2188C93.75 74.65 93.4 75 92.9688 75ZM79.6875 73.4375H92.1875V60.9375H79.6875V73.4375Z" fill="#006FBA"/>
<path d="M69.5312 65.625C69.3797 65.625 69.2297 65.5813 69.0984 65.4938L67.1875 64.2203L65.2766 65.4938C65.0359 65.6531 64.7281 65.6687 64.4734 65.5312C64.2219 65.3969 64.0625 65.1328 64.0625 64.8438V60.1562C64.0625 59.725 64.4125 59.375 64.8438 59.375H69.5312C69.9625 59.375 70.3125 59.725 70.3125 60.1562V64.8438C70.3125 65.1328 70.1531 65.3969 69.9 65.5312C69.7844 65.5937 69.6578 65.625 69.5312 65.625ZM67.1875 62.5C67.3391 62.5 67.4891 62.5437 67.6203 62.6312L68.75 63.3828V60.9375H65.625V63.3828L66.7547 62.6312C66.8859 62.5437 67.0359 62.5 67.1875 62.5ZM88.2812 65.625C88.1297 65.625 87.9797 65.5813 87.8484 65.4938L85.9375 64.2203L84.0266 65.4938C83.7859 65.6531 83.4781 65.6687 83.2234 65.5312C82.9719 65.3969 82.8125 65.1328 82.8125 64.8438V60.1562C82.8125 59.725 83.1625 59.375 83.5938 59.375H88.2812C88.7125 59.375 89.0625 59.725 89.0625 60.1562V64.8438C89.0625 65.1328 88.9031 65.3969 88.65 65.5312C88.5344 65.5937 88.4078 65.625 88.2812 65.625ZM85.9375 62.5C86.0891 62.5 86.2391 62.5437 86.3703 62.6312L87.5 63.3828V60.9375H84.375V63.3828L85.5047 62.6312C85.6359 62.5437 85.7859 62.5 85.9375 62.5Z" fill="#006FBA"/>
<path d="M83.5938 60.9375H69.5312C69.1 60.9375 68.75 60.5875 68.75 60.1562V46.0938C68.75 45.6625 69.1 45.3125 69.5312 45.3125H83.5938C84.025 45.3125 84.375 45.6625 84.375 46.0938V60.1562C84.375 60.5875 84.025 60.9375 83.5938 60.9375ZM70.3125 59.375H82.8125V46.875H70.3125V59.375Z" fill="#006FBA"/>
<path d="M78.9062 51.5625C78.7547 51.5625 78.6047 51.5188 78.4734 51.4313L76.5625 50.1578L74.6516 51.4313C74.4125 51.5906 74.1031 51.6063 73.8484 51.4703C73.5969 51.3344 73.4375 51.0703 73.4375 50.7812V46.0938C73.4375 45.6625 73.7875 45.3125 74.2188 45.3125H78.9062C79.3375 45.3125 79.6875 45.6625 79.6875 46.0938V50.7812C79.6875 51.0703 79.5281 51.3344 79.275 51.4703C79.1594 51.5313 79.0328 51.5625 78.9062 51.5625ZM76.5625 48.4375C76.7141 48.4375 76.8641 48.4812 76.9953 48.5687L78.125 49.3219V46.875H75V49.3219L76.1297 48.5687C76.2609 48.4812 76.4109 48.4375 76.5625 48.4375Z" fill="#006FBA"/>
<path d="M60.1562 65.625H10.1562C8.00156 65.625 6.25 63.8734 6.25 61.7188V25.7812C6.25 23.6281 8.00156 21.875 10.1562 21.875H61.7188C63.8734 21.875 65.625 23.6281 65.625 25.7812V60.1562C65.625 60.5875 65.275 60.9375 64.8438 60.9375H60.9375V64.8438C60.9375 65.275 60.5875 65.625 60.1562 65.625ZM10.1562 23.4375C8.86406 23.4375 7.8125 24.4891 7.8125 25.7812V61.7188C7.8125 63.0109 8.86406 64.0625 10.1562 64.0625H59.375V60.1562C59.375 59.725 59.725 59.375 60.1562 59.375H64.0625V25.7812C64.0625 24.4891 63.0109 23.4375 61.7188 23.4375H10.1562Z" fill="#006FBA"/>
</svg>
