<svg width="100" height="100" viewBox="0 0 100 100" fill="none" xmlns="http://www.w3.org/2000/svg">
<path d="M35.1453 72.6562C30.8375 72.6562 27.3328 69.1516 27.3328 64.8438C27.3328 60.5359 30.8375 57.0312 35.1453 57.0312C39.4531 57.0312 42.9578 60.5359 42.9578 64.8438C42.9578 69.1516 39.4531 72.6562 35.1453 72.6562ZM35.1453 58.5938C31.6984 58.5938 28.8953 61.3969 28.8953 64.8438C28.8953 68.2906 31.6984 71.0938 35.1453 71.0938C38.5921 71.0938 41.3953 68.2906 41.3953 64.8438C41.3953 61.3969 38.5921 58.5938 35.1453 58.5938Z" fill="#006FBA"/>
<path d="M37.489 88.2812H32.8015C32.4109 88.2812 32.0812 87.9938 32.0281 87.6063L31.1953 81.5719C29.3984 81.15 27.6921 80.4422 26.1125 79.4625L21.2531 83.1422C20.9437 83.3781 20.5046 83.35 20.2296 83.0719L16.9156 79.7578C16.639 79.4812 16.6093 79.0438 16.8453 78.7344L20.525 73.875C19.5468 72.2969 18.839 70.5922 18.4156 68.7938L12.3812 67.9609C11.9953 67.9078 11.7078 67.5781 11.7078 67.1875V62.5C11.7078 62.1094 11.9953 61.7797 12.3828 61.7266L18.4171 60.8937C18.8406 59.0953 19.5484 57.3891 20.5265 55.8125L16.8468 50.9531C16.6109 50.6422 16.6406 50.2047 16.9171 49.9297L20.2312 46.6156C20.5078 46.3391 20.9468 46.3109 21.2546 46.5453L26.114 50.225C27.6937 49.2469 29.4 48.5375 31.1968 48.1156L32.0296 42.0812C32.0828 41.6937 32.4125 41.4062 32.8031 41.4062H37.4906C37.8812 41.4062 38.2109 41.6937 38.264 42.0812L39.0968 48.1156C40.8937 48.5375 42.6 49.2453 44.1781 50.225L49.0375 46.5453C49.3484 46.3109 49.7859 46.3391 50.0609 46.6156L53.3765 49.9297C53.6531 50.2062 53.6828 50.6438 53.4468 50.9531L49.7656 55.8125C50.7437 57.3906 51.4515 59.0953 51.875 60.8937L57.9093 61.7266C58.2968 61.7797 58.5843 62.1109 58.5843 62.5V67.1875C58.5843 67.5781 58.2968 67.9078 57.9093 67.9609L51.875 68.7938C51.4515 70.5922 50.7437 72.2969 49.7656 73.875L53.4468 78.7344C53.6828 79.0453 53.6531 79.4828 53.3765 79.7578L50.0609 83.0719C49.7843 83.35 49.3484 83.3781 49.0375 83.1422L44.1781 79.4625C42.5984 80.4406 40.8937 81.15 39.0968 81.5719L38.264 87.6063C38.2093 87.9938 37.8796 88.2812 37.489 88.2812ZM33.4828 86.7188H36.8078L37.6218 80.8187C37.6671 80.4891 37.9156 80.225 38.2406 80.1594C40.2218 79.7625 42.0843 78.9875 43.7812 77.8609C44.0578 77.6766 44.4203 77.6875 44.6859 77.8891L49.4375 81.4875L51.789 79.1359L48.189 74.3844C47.989 74.1203 47.9765 73.7578 48.1609 73.4797C49.289 71.7859 50.0624 69.9219 50.4609 67.9406C50.5265 67.6156 50.7906 67.3656 51.1203 67.3219L57.0203 66.5078V63.1813L51.1203 62.3672C50.7921 62.3219 50.5265 62.0734 50.4609 61.7484C50.0624 59.7656 49.289 57.9016 48.1624 56.2094C47.9781 55.9328 47.989 55.5703 48.1906 55.3047L51.7906 50.5531L49.439 48.2016L44.6875 51.7984C44.4218 51.9984 44.0593 52.0094 43.7828 51.8266C42.0875 50.6984 40.2234 49.925 38.2421 49.5281C37.9171 49.4625 37.6671 49.1984 37.6234 48.8687L36.8093 42.9688H33.4843L32.6703 48.8687C32.625 49.1969 32.3765 49.4625 32.0515 49.5281C30.0718 49.925 28.2078 50.7 26.5109 51.8266C26.2328 52.0094 25.8703 51.9984 25.6062 51.7984L20.8546 48.2L18.5031 50.5516L22.1015 55.3031C22.3015 55.5672 22.314 55.9297 22.1296 56.2078C21.0031 57.9016 20.2296 59.7656 19.8312 61.7469C19.7656 62.0719 19.5015 62.3219 19.1718 62.3656L13.2718 63.1797V66.5062L19.1718 67.3203C19.5 67.3656 19.7656 67.6141 19.8312 67.9391C20.2296 69.9219 21.0031 71.7844 22.1296 73.4781C22.314 73.7547 22.3015 74.1172 22.1015 74.3828L18.5031 79.1344L20.8546 81.4859L25.6062 77.8875C25.8703 77.6859 26.2328 77.675 26.5109 77.8594C28.2062 78.9875 30.0718 79.7609 32.0515 80.1578C32.3765 80.2234 32.6265 80.4875 32.6703 80.8172L33.4828 86.7188ZM57.8015 67.1875H57.8171H57.8015ZM57.0203 35.1562C54.4359 35.1562 52.3328 33.0531 52.3328 30.4688C52.3328 27.8844 54.4359 25.7812 57.0203 25.7812C59.6046 25.7812 61.7078 27.8844 61.7078 30.4688C61.7078 33.0531 59.6046 35.1562 57.0203 35.1562ZM57.0203 27.3438C55.2968 27.3438 53.8953 28.7453 53.8953 30.4688C53.8953 32.1922 55.2968 33.5938 57.0203 33.5938C58.7437 33.5938 60.1453 32.1922 60.1453 30.4688C60.1453 28.7453 58.7437 27.3438 57.0203 27.3438Z" fill="#006FBA"/>
<path d="M58.8798 49.2188H55.1626C54.772 49.2188 54.4423 48.9313 54.3892 48.5438L53.7438 43.8672C52.3767 43.5344 51.0751 42.9953 49.8673 42.2594L46.1017 45.1125C45.7923 45.3484 45.3532 45.3203 45.0782 45.0422L42.4501 42.4125C42.1735 42.1359 42.1438 41.6984 42.3798 41.3891L45.2329 37.6234C44.497 36.4141 43.9563 35.1141 43.6235 33.7469L38.947 33.1016C38.5595 33.0484 38.272 32.7172 38.272 32.3281V28.6109C38.272 28.2203 38.5595 27.8906 38.947 27.8375L43.6235 27.1922C43.9563 25.8234 44.497 24.5234 45.2329 23.3156L42.3798 19.55C42.1438 19.2391 42.1735 18.8016 42.4501 18.5266L45.0782 15.8969C45.3548 15.6219 45.7938 15.5922 46.1017 15.8266L49.8673 18.6797C51.0751 17.9437 52.3751 17.4047 53.7438 17.0719L54.3892 12.3953C54.4423 12.0063 54.772 11.7188 55.1626 11.7188H58.8798C59.2704 11.7188 59.6001 12.0063 59.6532 12.3938L60.2985 17.0703C61.6657 17.4031 62.9673 17.9422 64.1751 18.6781L67.9407 15.825C68.2517 15.5906 68.6892 15.6203 68.9642 15.8953L71.5938 18.525C71.8704 18.8016 71.9001 19.2391 71.6642 19.5484L68.811 23.3141C69.547 24.5219 70.086 25.8219 70.4204 27.1906L75.097 27.8359C75.4845 27.8891 75.772 28.2203 75.772 28.6094V32.3266C75.772 32.7172 75.4845 33.0469 75.097 33.1L70.4204 33.7453C70.0876 35.1141 69.547 36.4141 68.811 37.6219L71.6642 41.3875C71.9001 41.6984 71.8704 42.1359 71.5938 42.4109L68.9642 45.0406C68.6892 45.3187 68.2517 45.3469 67.9407 45.1109L64.1751 42.2578C62.9673 42.9937 61.6673 43.5328 60.2985 43.8656L59.6532 48.5422C59.6017 48.9312 59.2704 49.2188 58.8798 49.2188ZM55.8423 47.6562H58.1985L58.8251 43.1156C58.8704 42.7875 59.1188 42.5219 59.4438 42.4563C60.9954 42.1453 62.4532 41.5391 63.7798 40.6578C64.0563 40.4734 64.4204 40.4844 64.6845 40.6859L68.3407 43.4547L70.0063 41.7891L67.2376 38.1328C67.0376 37.8688 67.0251 37.5063 67.2095 37.2281C68.0907 35.9016 68.697 34.4422 69.0095 32.8922C69.0751 32.5672 69.3392 32.3172 69.6688 32.2734L74.2079 31.6469V29.2906L69.6688 28.6641C69.3407 28.6187 69.0751 28.3703 69.0095 28.0453C68.697 26.4937 68.0923 25.0344 67.2095 23.7094C67.0251 23.4328 67.0376 23.0703 67.2376 22.8047L70.0063 19.1484L68.3407 17.4828L64.6845 20.2516C64.4204 20.4516 64.0563 20.4625 63.7798 20.2797C62.4532 19.3984 60.9938 18.7922 59.4438 18.4813C59.1188 18.4156 58.8688 18.1516 58.8251 17.8219L58.1985 13.2812H55.8423L55.2157 17.8219C55.1704 18.15 54.922 18.4156 54.597 18.4813C53.0454 18.7938 51.5876 19.3984 50.261 20.2797C49.9829 20.4625 49.6204 20.4516 49.3563 20.2516L45.7001 17.4828L44.0345 19.1484L46.8032 22.8047C47.0032 23.0688 47.0157 23.4328 46.8313 23.7094C45.9485 25.0359 45.3423 26.4953 45.0313 28.0453C44.9657 28.3703 44.7017 28.6203 44.372 28.6641L39.8313 29.2906V31.6469L44.372 32.2734C44.7001 32.3188 44.9657 32.5672 45.0313 32.8922C45.3423 34.4422 45.9485 35.9016 46.8313 37.2281C47.0157 37.5047 47.0032 37.8672 46.8032 38.1328L44.0345 41.7891L45.7001 43.4547L49.3563 40.6859C49.6204 40.4844 49.9829 40.4734 50.261 40.6578C51.5876 41.5391 53.047 42.1453 54.597 42.4563C54.922 42.5219 55.172 42.7859 55.2157 43.1156L55.8423 47.6562ZM74.9892 32.3266H75.0048H74.9892ZM74.2095 60.9234C74.1923 60.9234 74.1767 60.9234 74.1595 60.9234C72.436 60.8953 71.0563 59.4703 71.0845 57.7484C71.1142 56.025 72.5345 54.6688 74.2595 54.6734C75.9829 54.7016 77.3626 56.1266 77.3345 57.8484C77.3063 59.5547 75.9095 60.9234 74.2095 60.9234ZM74.2079 56.2359C73.3595 56.2359 72.6595 56.9203 72.6454 57.7734C72.6313 58.6344 73.322 59.3469 74.1829 59.3609C75.0392 59.375 75.7548 58.6844 75.7704 57.8234C75.7845 56.9625 75.0938 56.25 74.2329 56.2359C74.2251 56.2359 74.2173 56.2359 74.2079 56.2359ZM76.5532 57.8359H76.5688H76.5532Z" fill="#006FBA"/>
<path d="M75.3688 71.8813C75.3656 71.8813 75.3609 71.8813 75.3563 71.8813L72.6078 71.8376C72.2172 71.8313 71.8922 71.5376 71.8453 71.1501L71.4422 67.8235C70.5078 67.5673 69.6203 67.1813 68.7906 66.6735L66.0859 68.6548C65.7703 68.8845 65.3344 68.8485 65.0625 68.5673L63.1516 66.5938C62.8797 66.3142 62.8563 65.8767 63.0969 65.5688L65.1656 62.9298C64.6844 62.0829 64.3281 61.1829 64.1016 60.2423L60.7891 59.7313C60.4031 59.672 60.1203 59.3376 60.1266 58.947L60.1703 56.1985C60.1766 55.8079 60.4703 55.4829 60.8578 55.436L64.1844 55.0329C64.4406 54.1001 64.8266 53.2126 65.3344 52.3813L63.3531 49.6767C63.1234 49.3626 63.1594 48.9251 63.4406 48.6532L65.4141 46.7423C65.6922 46.4688 66.1297 46.447 66.4391 46.6876L69.0781 48.7563C69.9234 48.2751 70.8234 47.9188 71.7656 47.6923L72.2766 44.3798C72.3359 43.9938 72.6172 43.7032 73.0609 43.7173L75.8094 43.761C76.2 43.7673 76.525 44.061 76.5719 44.4485L76.975 47.7751C77.9078 48.0313 78.7953 48.4173 79.6266 48.9251L82.3313 46.9438C82.6438 46.7126 83.0813 46.7485 83.3547 47.0313L85.2656 49.0048C85.5375 49.2845 85.5609 49.722 85.3203 50.0298L83.2516 52.6688C83.7328 53.5142 84.0891 54.4142 84.3156 55.3563L87.6281 55.8673C88.0141 55.9267 88.2969 56.261 88.2906 56.6517L88.2469 59.4001C88.2406 59.7907 87.9469 60.1157 87.5594 60.1626L84.2328 60.5657C83.975 61.5001 83.5906 62.3876 83.0828 63.2173L85.0641 65.922C85.2938 66.236 85.2578 66.6735 84.9766 66.9454L83.0031 68.8563C82.7234 69.1282 82.2859 69.1501 81.9781 68.911L79.3391 66.8423C78.4922 67.3235 77.5922 67.6798 76.6516 67.9063L76.1406 71.2188C76.0813 71.6001 75.7531 71.8813 75.3688 71.8813ZM73.3141 70.286L74.7 70.3079L75.1891 67.136C75.2391 66.8079 75.4922 66.547 75.8188 66.486C76.9422 66.2782 78.0031 65.8579 78.9734 65.236C79.2531 65.0563 79.6156 65.072 79.8781 65.2782L82.4063 67.2595L83.4016 66.2954L81.5031 63.7048C81.3078 63.4376 81.3016 63.0735 81.4891 62.8001C82.1406 61.8517 82.5953 60.8048 82.8391 59.6876C82.9094 59.3626 83.1781 59.1188 83.5094 59.0782L86.6969 58.6907L86.7188 57.3048L83.5469 56.8157C83.2188 56.7657 82.9578 56.5126 82.8969 56.186C82.6891 55.061 82.2688 54.0001 81.6469 53.0313C81.4672 52.7517 81.4844 52.3892 81.6891 52.1267L83.6703 49.5985L82.7063 48.6032L80.1156 50.5017C79.8484 50.6985 79.4859 50.7032 79.2109 50.5157C78.2609 49.8626 77.2141 49.4079 76.1 49.1657C75.775 49.0954 75.5297 48.8267 75.4891 48.4954L75.1016 45.3079L73.7156 45.286L73.2266 48.4579C73.1766 48.786 72.9234 49.047 72.5969 49.1079C71.4719 49.3157 70.4109 49.736 69.4422 50.3579C69.1609 50.536 68.7984 50.5204 68.5375 50.3157L66.0094 48.3345L65.0141 49.2985L66.9125 51.8892C67.1078 52.1563 67.1141 52.5204 66.9266 52.7938C66.2734 53.7438 65.8188 54.7907 65.5766 55.9048C65.5063 56.2298 65.2375 56.4751 64.9063 56.5157L61.7188 56.9032L61.6969 58.2892L64.8688 58.7782C65.1969 58.8282 65.4578 59.0813 65.5188 59.4079C65.7266 60.5313 66.1469 61.5923 66.7688 62.5626C66.9484 62.8423 66.9313 63.2048 66.7266 63.4673L64.7453 65.9954L65.7094 66.9907L68.3 65.0923C68.5688 64.897 68.9313 64.8923 69.2047 65.0782C70.1531 65.7313 71.2 66.1845 72.3172 66.4282C72.6422 66.4985 72.8859 66.7673 72.9266 67.0985L73.3141 70.286ZM87.4672 59.386H87.4828H87.4672Z" fill="#006FBA"/>
</svg>
