<svg width="100" height="100" viewBox="0 0 100 100" fill="none" xmlns="http://www.w3.org/2000/svg">
<path d="M38.6482 24.6518C38.5376 24.6518 38.4257 24.6235 38.3267 24.5656L32.5393 21.2243C32.3412 21.1112 32.2178 20.8989 32.2178 20.6687V13.9862C32.2178 13.756 32.3412 13.5438 32.5393 13.4294L38.3267 10.0868C38.5247 9.97106 38.7717 9.97106 38.9697 10.0868L44.7571 13.4294C44.9552 13.5438 45.0786 13.756 45.0786 13.9862V20.6687C45.0786 20.8989 44.9552 21.1112 44.7571 21.2256L38.9697 24.5669C38.8707 24.6235 38.7588 24.6518 38.6482 24.6518ZM33.5039 20.2971L38.6482 23.2679L43.7926 20.2971V14.3579L38.6482 11.3858L33.5039 14.3579V20.2971Z" fill="#006FBA"/>
<path d="M38.6481 24.6399C38.2931 24.6399 38.0051 24.3518 38.0051 23.9969V22.2182C38.0051 21.8632 38.2931 21.5752 38.6481 21.5752C39.0031 21.5752 39.2911 21.8632 39.2911 22.2182V23.9969C39.2911 24.3518 39.0031 24.6399 38.6481 24.6399ZM34.7963 15.7762C34.687 15.7762 34.5764 15.7492 34.4748 15.69L32.5559 14.5827C32.2485 14.4052 32.1431 14.013 32.3206 13.7043C32.498 13.3982 32.8916 13.2915 33.199 13.469L35.1178 14.5763C35.4252 14.7538 35.5306 15.146 35.3531 15.4547C35.2348 15.6604 35.0175 15.7762 34.7963 15.7762ZM42.4639 15.7762C42.2427 15.7762 42.0254 15.6604 41.9071 15.4547C41.7283 15.1473 41.8337 14.7538 42.1424 14.5763L44.0612 13.469C44.3673 13.2889 44.7622 13.3956 44.9396 13.7043C45.1184 14.0117 45.0129 14.4052 44.7043 14.5827L42.7854 15.69C42.6838 15.7492 42.5732 15.7762 42.4639 15.7762ZM38.6481 15.4032C38.2931 15.4032 38.0051 15.1151 38.0051 14.7602V14.1171C38.0051 13.7622 38.2931 13.4741 38.6481 13.4741C39.0031 13.4741 39.2911 13.7622 39.2911 14.1171V14.7602C39.2911 15.1151 39.0031 15.4032 38.6481 15.4032ZM38.6442 20.9411C38.2893 20.9411 38.0012 20.653 38.0012 20.2981V19.3901C38.0012 19.0351 38.2893 18.7471 38.6442 18.7471C38.9992 18.7471 39.2873 19.0351 39.2873 19.3901V20.2981C39.2873 20.653 38.9992 20.9411 38.6442 20.9411Z" fill="#006FBA"/>
<path d="M39.0812 17.8376H38.2466C37.3553 17.8376 36.6287 17.1148 36.6287 16.2287C36.6287 15.3426 37.354 14.6211 38.2466 14.6211H40.0188C40.3738 14.6211 40.6618 14.9092 40.6618 15.2641C40.6618 15.6191 40.3738 15.9072 40.0188 15.9072H38.2466C38.0626 15.9072 37.9148 16.0512 37.9148 16.2287C37.9148 16.4075 38.0626 16.5515 38.2466 16.5515H39.0812C39.4362 16.5515 39.7243 16.8396 39.7243 17.1946C39.7243 17.5495 39.4362 17.8376 39.0812 17.8376Z" fill="#006FBA"/>
<path d="M39.056 19.7609H37.2722C36.9172 19.7609 36.6291 19.4728 36.6291 19.1178C36.6291 18.7629 36.9172 18.4748 37.2722 18.4748H39.0572C39.2334 18.4748 39.3762 18.332 39.3762 18.1558C39.3762 17.9796 39.2322 17.8369 39.056 17.8369H38.5068C38.1518 17.8369 37.8638 17.5488 37.8638 17.1938C37.8638 16.8389 38.1518 16.5508 38.5068 16.5508H39.0572C39.9421 16.5508 40.6623 17.271 40.6623 18.1558C40.6623 19.0406 39.9421 19.7609 39.056 19.7609ZM55.3674 89.9992H20.643C20.2881 89.9992 20 89.7112 20 89.3562V31.4823C20 31.1273 20.2881 30.8392 20.643 30.8392H55.3674C55.7224 30.8392 56.0104 31.1273 56.0104 31.4823V89.3562C56.0104 89.7112 55.7224 89.9992 55.3674 89.9992ZM21.2861 88.7132H54.7244V32.1253H21.2861V88.7132Z" fill="#006FBA"/>
<path d="M78.5171 89.9997H55.3675C55.0126 89.9997 54.7245 89.7117 54.7245 89.3567V46.9158C54.7245 46.5608 55.0126 46.2728 55.3675 46.2728H78.5171C78.8721 46.2728 79.1602 46.5608 79.1602 46.9158V89.3567C79.1602 89.7117 78.8721 89.9997 78.5171 89.9997ZM56.0106 88.7136H77.8741V47.5588H56.0106V88.7136ZM51.5093 32.1258H24.5014C24.1465 32.1258 23.8584 31.8377 23.8584 31.4828V27.6245C23.8584 27.2695 24.1465 26.9814 24.5014 26.9814H51.5093C51.8642 26.9814 52.1523 27.2695 52.1523 27.6245V31.4828C52.1523 31.8377 51.8642 32.1258 51.5093 32.1258ZM25.1445 30.8397H50.8662V28.2675H25.1445V30.8397Z" fill="#006FBA"/>
<path d="M74.6585 47.559H59.2254C58.8705 47.559 58.5824 47.2709 58.5824 46.9159V43.0577C58.5824 42.7027 58.8705 42.4146 59.2254 42.4146H74.6585C75.0134 42.4146 75.3015 42.7027 75.3015 43.0577V46.9159C75.3015 47.2709 75.0134 47.559 74.6585 47.559ZM59.8685 46.2729H74.0154V43.7007H59.8685V46.2729ZM42.5333 28.2676H34.8168C34.4618 28.2676 34.1737 27.9796 34.1737 27.6246V21.7973C34.1737 21.4424 34.4618 21.1543 34.8168 21.1543C35.1717 21.1543 35.4598 21.4424 35.4598 21.7973V26.9816H41.8902V21.7973C41.8902 21.4424 42.1783 21.1543 42.5333 21.1543C42.8882 21.1543 43.1763 21.4424 43.1763 21.7973V27.6246C43.1763 27.9796 42.8882 28.2676 42.5333 28.2676ZM28.3863 39.8424H24.5281C24.1731 39.8424 23.885 39.5544 23.885 39.1994C23.885 38.8444 24.1731 38.5563 24.5281 38.5563H27.7433V35.3411C27.7433 34.9862 28.0314 34.6981 28.3863 34.6981C28.7413 34.6981 29.0294 34.9862 29.0294 35.3411V39.1994C29.0294 39.5544 28.7413 39.8424 28.3863 39.8424ZM36.1028 39.8424H32.2446C31.8896 39.8424 31.6015 39.5544 31.6015 39.1994C31.6015 38.8444 31.8896 38.5563 32.2446 38.5563H35.4598V35.3411C35.4598 34.9862 35.7479 34.6981 36.1028 34.6981C36.4578 34.6981 36.7459 34.9862 36.7459 35.3411V39.1994C36.7459 39.5544 36.4578 39.8424 36.1028 39.8424ZM43.8194 39.8424H39.9611C39.6061 39.8424 39.3181 39.5544 39.3181 39.1994C39.3181 38.8444 39.6061 38.5563 39.9611 38.5563H43.1763V35.3411C43.1763 34.9862 43.4644 34.6981 43.8194 34.6981C44.1743 34.6981 44.4624 34.9862 44.4624 35.3411V39.1994C44.4624 39.5544 44.1743 39.8424 43.8194 39.8424ZM61.8246 53.9894H59.2524C58.8975 53.9894 58.6094 53.7013 58.6094 53.3464C58.6094 52.9914 58.8975 52.7033 59.2524 52.7033H61.1816V50.7742C61.1816 50.4192 61.4696 50.1311 61.8246 50.1311C62.1796 50.1311 62.4676 50.4192 62.4676 50.7742V53.3464C62.4676 53.7013 62.1796 53.9894 61.8246 53.9894ZM68.255 53.9894H65.6829C65.3279 53.9894 65.0398 53.7013 65.0398 53.3464C65.0398 52.9914 65.3279 52.7033 65.6829 52.7033H67.612V50.7742C67.612 50.4192 67.9001 50.1311 68.255 50.1311C68.61 50.1311 68.8981 50.4192 68.8981 50.7742V53.3464C68.8981 53.7013 68.61 53.9894 68.255 53.9894ZM74.6855 53.9894H72.1133C71.7583 53.9894 71.4703 53.7013 71.4703 53.3464C71.4703 52.9914 71.7583 52.7033 72.1133 52.7033H74.0424V50.7742C74.0424 50.4192 74.3305 50.1311 74.6855 50.1311C75.0404 50.1311 75.3285 50.4192 75.3285 50.7742V53.3464C75.3285 53.7013 75.0404 53.9894 74.6855 53.9894ZM61.8246 60.4198H59.2524C58.8975 60.4198 58.6094 60.1318 58.6094 59.7768C58.6094 59.4218 58.8975 59.1337 59.2524 59.1337H61.1816V57.2046C61.1816 56.8497 61.4696 56.5616 61.8246 56.5616C62.1796 56.5616 62.4676 56.8497 62.4676 57.2046V59.7768C62.4676 60.1318 62.1796 60.4198 61.8246 60.4198ZM68.255 60.4198H65.6829C65.3279 60.4198 65.0398 60.1318 65.0398 59.7768C65.0398 59.4218 65.3279 59.1337 65.6829 59.1337H67.612V57.2046C67.612 56.8497 67.9001 56.5616 68.255 56.5616C68.61 56.5616 68.8981 56.8497 68.8981 57.2046V59.7768C68.8981 60.1318 68.61 60.4198 68.255 60.4198ZM74.6855 60.4198H72.1133C71.7583 60.4198 71.4703 60.1318 71.4703 59.7768C71.4703 59.4218 71.7583 59.1337 72.1133 59.1337H74.0424V57.2046C74.0424 56.8497 74.3305 56.5616 74.6855 56.5616C75.0404 56.5616 75.3285 56.8497 75.3285 57.2046V59.7768C75.3285 60.1318 75.0404 60.4198 74.6855 60.4198ZM61.8246 66.8503H59.2524C58.8975 66.8503 58.6094 66.5622 58.6094 66.2072C58.6094 65.8523 58.8975 65.5642 59.2524 65.5642H61.1816V63.6351C61.1816 63.2801 61.4696 62.992 61.8246 62.992C62.1796 62.992 62.4676 63.2801 62.4676 63.6351V66.2072C62.4676 66.5622 62.1796 66.8503 61.8246 66.8503ZM68.255 66.8503H65.6829C65.3279 66.8503 65.0398 66.5622 65.0398 66.2072C65.0398 65.8523 65.3279 65.5642 65.6829 65.5642H67.612V63.6351C67.612 63.2801 67.9001 62.992 68.255 62.992C68.61 62.992 68.8981 63.2801 68.8981 63.6351V66.2072C68.8981 66.5622 68.61 66.8503 68.255 66.8503ZM74.6855 66.8503H72.1133C71.7583 66.8503 71.4703 66.5622 71.4703 66.2072C71.4703 65.8523 71.7583 65.5642 72.1133 65.5642H74.0424V63.6351C74.0424 63.2801 74.3305 62.992 74.6855 62.992C75.0404 62.992 75.3285 63.2801 75.3285 63.6351V66.2072C75.3285 66.5622 75.0404 66.8503 74.6855 66.8503ZM61.8246 73.2807H59.2524C58.8975 73.2807 58.6094 72.9926 58.6094 72.6377C58.6094 72.2827 58.8975 71.9946 59.2524 71.9946H61.1816V70.0655C61.1816 69.7105 61.4696 69.4224 61.8246 69.4224C62.1796 69.4224 62.4676 69.7105 62.4676 70.0655V72.6377C62.4676 72.9926 62.1796 73.2807 61.8246 73.2807ZM68.255 73.2807H65.6829C65.3279 73.2807 65.0398 72.9926 65.0398 72.6377C65.0398 72.2827 65.3279 71.9946 65.6829 71.9946H67.612V70.0655C67.612 69.7105 67.9001 69.4224 68.255 69.4224C68.61 69.4224 68.8981 69.7105 68.8981 70.0655V72.6377C68.8981 72.9926 68.61 73.2807 68.255 73.2807ZM74.6855 73.2807H72.1133C71.7583 73.2807 71.4703 72.9926 71.4703 72.6377C71.4703 72.2827 71.7583 71.9946 72.1133 71.9946H74.0424V70.0655C74.0424 69.7105 74.3305 69.4224 74.6855 69.4224C75.0404 69.4224 75.3285 69.7105 75.3285 70.0655V72.6377C75.3285 72.9926 75.0404 73.2807 74.6855 73.2807ZM61.8246 79.7111H59.2524C58.8975 79.7111 58.6094 79.4231 58.6094 79.0681C58.6094 78.7131 58.8975 78.4251 59.2524 78.4251H61.1816V76.4959C61.1816 76.141 61.4696 75.8529 61.8246 75.8529C62.1796 75.8529 62.4676 76.141 62.4676 76.4959V79.0681C62.4676 79.4231 62.1796 79.7111 61.8246 79.7111ZM68.255 79.7111H65.6829C65.3279 79.7111 65.0398 79.4231 65.0398 79.0681C65.0398 78.7131 65.3279 78.4251 65.6829 78.4251H67.612V76.4959C67.612 76.141 67.9001 75.8529 68.255 75.8529C68.61 75.8529 68.8981 76.141 68.8981 76.4959V79.0681C68.8981 79.4231 68.61 79.7111 68.255 79.7111ZM74.6855 79.7111H72.1133C71.7583 79.7111 71.4703 79.4231 71.4703 79.0681C71.4703 78.7131 71.7583 78.4251 72.1133 78.4251H74.0424V76.4959C74.0424 76.141 74.3305 75.8529 74.6855 75.8529C75.0404 75.8529 75.3285 76.141 75.3285 76.4959V79.0681C75.3285 79.4231 75.0404 79.7111 74.6855 79.7111ZM61.8246 86.1416H59.2524C58.8975 86.1416 58.6094 85.8535 58.6094 85.4985C58.6094 85.1436 58.8975 84.8555 59.2524 84.8555H61.1816V82.9264C61.1816 82.5714 61.4696 82.2833 61.8246 82.2833C62.1796 82.2833 62.4676 82.5714 62.4676 82.9264V85.4985C62.4676 85.8535 62.1796 86.1416 61.8246 86.1416ZM68.255 86.1416H65.6829C65.3279 86.1416 65.0398 85.8535 65.0398 85.4985C65.0398 85.1436 65.3279 84.8555 65.6829 84.8555H67.612V82.9264C67.612 82.5714 67.9001 82.2833 68.255 82.2833C68.61 82.2833 68.8981 82.5714 68.8981 82.9264V85.4985C68.8981 85.8535 68.61 86.1416 68.255 86.1416ZM74.6855 86.1416H72.1133C71.7583 86.1416 71.4703 85.8535 71.4703 85.4985C71.4703 85.1436 71.7583 84.8555 72.1133 84.8555H74.0424V82.9264C74.0424 82.5714 74.3305 82.2833 74.6855 82.2833C75.0404 82.2833 75.3285 82.5714 75.3285 82.9264V85.4985C75.3285 85.8535 75.0404 86.1416 74.6855 86.1416ZM51.5359 39.8424H47.6776C47.3227 39.8424 47.0346 39.5544 47.0346 39.1994C47.0346 38.8444 47.3227 38.5563 47.6776 38.5563H50.8929V35.3411C50.8929 34.9862 51.1809 34.6981 51.5359 34.6981C51.8909 34.6981 52.1789 34.9862 52.1789 35.3411V39.1994C52.1789 39.5544 51.8909 39.8424 51.5359 39.8424ZM28.3863 47.559H24.5281C24.1731 47.559 23.885 47.2709 23.885 46.9159C23.885 46.561 24.1731 46.2729 24.5281 46.2729H27.7433V43.0577C27.7433 42.7027 28.0314 42.4146 28.3863 42.4146C28.7413 42.4146 29.0294 42.7027 29.0294 43.0577V46.9159C29.0294 47.2709 28.7413 47.559 28.3863 47.559ZM36.1028 47.559H32.2446C31.8896 47.559 31.6015 47.2709 31.6015 46.9159C31.6015 46.561 31.8896 46.2729 32.2446 46.2729H35.4598V43.0577C35.4598 42.7027 35.7479 42.4146 36.1028 42.4146C36.4578 42.4146 36.7459 42.7027 36.7459 43.0577V46.9159C36.7459 47.2709 36.4578 47.559 36.1028 47.559ZM43.8194 47.559H39.9611C39.6061 47.559 39.3181 47.2709 39.3181 46.9159C39.3181 46.561 39.6061 46.2729 39.9611 46.2729H43.1763V43.0577C43.1763 42.7027 43.4644 42.4146 43.8194 42.4146C44.1743 42.4146 44.4624 42.7027 44.4624 43.0577V46.9159C44.4624 47.2709 44.1743 47.559 43.8194 47.559ZM51.5359 47.559H47.6776C47.3227 47.559 47.0346 47.2709 47.0346 46.9159C47.0346 46.561 47.3227 46.2729 47.6776 46.2729H50.8929V43.0577C50.8929 42.7027 51.1809 42.4146 51.5359 42.4146C51.8909 42.4146 52.1789 42.7027 52.1789 43.0577V46.9159C52.1789 47.2709 51.8909 47.559 51.5359 47.559ZM28.3863 55.2755H24.5281C24.1731 55.2755 23.885 54.9874 23.885 54.6324C23.885 54.2775 24.1731 53.9894 24.5281 53.9894H27.7433V50.7742C27.7433 50.4192 28.0314 50.1311 28.3863 50.1311C28.7413 50.1311 29.0294 50.4192 29.0294 50.7742V54.6324C29.0294 54.9874 28.7413 55.2755 28.3863 55.2755ZM36.1028 55.2755H32.2446C31.8896 55.2755 31.6015 54.9874 31.6015 54.6324C31.6015 54.2775 31.8896 53.9894 32.2446 53.9894H35.4598V50.7742C35.4598 50.4192 35.7479 50.1311 36.1028 50.1311C36.4578 50.1311 36.7459 50.4192 36.7459 50.7742V54.6324C36.7459 54.9874 36.4578 55.2755 36.1028 55.2755ZM43.8194 55.2755H39.9611C39.6061 55.2755 39.3181 54.9874 39.3181 54.6324C39.3181 54.2775 39.6061 53.9894 39.9611 53.9894H43.1763V50.7742C43.1763 50.4192 43.4644 50.1311 43.8194 50.1311C44.1743 50.1311 44.4624 50.4192 44.4624 50.7742V54.6324C44.4624 54.9874 44.1743 55.2755 43.8194 55.2755ZM51.5359 55.2755H47.6776C47.3227 55.2755 47.0346 54.9874 47.0346 54.6324C47.0346 54.2775 47.3227 53.9894 47.6776 53.9894H50.8929V50.7742C50.8929 50.4192 51.1809 50.1311 51.5359 50.1311C51.8909 50.1311 52.1789 50.4192 52.1789 50.7742V54.6324C52.1789 54.9874 51.8909 55.2755 51.5359 55.2755ZM28.3863 62.992H24.5281C24.1731 62.992 23.885 62.7039 23.885 62.349C23.885 61.994 24.1731 61.7059 24.5281 61.7059H27.7433V58.4907C27.7433 58.1357 28.0314 57.8477 28.3863 57.8477C28.7413 57.8477 29.0294 58.1357 29.0294 58.4907V62.349C29.0294 62.7039 28.7413 62.992 28.3863 62.992ZM36.1028 62.992H32.2446C31.8896 62.992 31.6015 62.7039 31.6015 62.349C31.6015 61.994 31.8896 61.7059 32.2446 61.7059H35.4598V58.4907C35.4598 58.1357 35.7479 57.8477 36.1028 57.8477C36.4578 57.8477 36.7459 58.1357 36.7459 58.4907V62.349C36.7459 62.7039 36.4578 62.992 36.1028 62.992ZM43.8194 62.992H39.9611C39.6061 62.992 39.3181 62.7039 39.3181 62.349C39.3181 61.994 39.6061 61.7059 39.9611 61.7059H43.1763V58.4907C43.1763 58.1357 43.4644 57.8477 43.8194 57.8477C44.1743 57.8477 44.4624 58.1357 44.4624 58.4907V62.349C44.4624 62.7039 44.1743 62.992 43.8194 62.992ZM51.5359 62.992H47.6776C47.3227 62.992 47.0346 62.7039 47.0346 62.349C47.0346 61.994 47.3227 61.7059 47.6776 61.7059H50.8929V58.4907C50.8929 58.1357 51.1809 57.8477 51.5359 57.8477C51.8909 57.8477 52.1789 58.1357 52.1789 58.4907V62.349C52.1789 62.7039 51.8909 62.992 51.5359 62.992ZM28.3863 70.7085H24.5281C24.1731 70.7085 23.885 70.4204 23.885 70.0655C23.885 69.7105 24.1731 69.4224 24.5281 69.4224H27.7433V66.2072C27.7433 65.8523 28.0314 65.5642 28.3863 65.5642C28.7413 65.5642 29.0294 65.8523 29.0294 66.2072V70.0655C29.0294 70.4204 28.7413 70.7085 28.3863 70.7085ZM36.1028 70.7085H32.2446C31.8896 70.7085 31.6015 70.4204 31.6015 70.0655C31.6015 69.7105 31.8896 69.4224 32.2446 69.4224H35.4598V66.2072C35.4598 65.8523 35.7479 65.5642 36.1028 65.5642C36.4578 65.5642 36.7459 65.8523 36.7459 66.2072V70.0655C36.7459 70.4204 36.4578 70.7085 36.1028 70.7085ZM43.8194 70.7085H39.9611C39.6061 70.7085 39.3181 70.4204 39.3181 70.0655C39.3181 69.7105 39.6061 69.4224 39.9611 69.4224H43.1763V66.2072C43.1763 65.8523 43.4644 65.5642 43.8194 65.5642C44.1743 65.5642 44.4624 65.8523 44.4624 66.2072V70.0655C44.4624 70.4204 44.1743 70.7085 43.8194 70.7085ZM51.5359 70.7085H47.6776C47.3227 70.7085 47.0346 70.4204 47.0346 70.0655C47.0346 69.7105 47.3227 69.4224 47.6776 69.4224H50.8929V66.2072C50.8929 65.8523 51.1809 65.5642 51.5359 65.5642C51.8909 65.5642 52.1789 65.8523 52.1789 66.2072V70.0655C52.1789 70.4204 51.8909 70.7085 51.5359 70.7085ZM28.3863 78.4251H24.5281C24.1731 78.4251 23.885 78.137 23.885 77.782C23.885 77.4271 24.1731 77.139 24.5281 77.139H27.7433V73.9238C27.7433 73.5688 28.0314 73.2807 28.3863 73.2807C28.7413 73.2807 29.0294 73.5688 29.0294 73.9238V77.782C29.0294 78.137 28.7413 78.4251 28.3863 78.4251ZM51.5359 78.6874H47.6776C47.3227 78.6874 47.0346 78.3993 47.0346 78.0444C47.0346 77.6894 47.3227 77.4013 47.6776 77.4013H50.8929V74.1861C50.8929 73.8312 51.1809 73.5431 51.5359 73.5431C51.8909 73.5431 52.1789 73.8312 52.1789 74.1861V78.0444C52.1789 78.3993 51.8909 78.6874 51.5359 78.6874ZM28.3863 86.1416H24.5281C24.1731 86.1416 23.885 85.8535 23.885 85.4985C23.885 85.1436 24.1731 84.8555 24.5281 84.8555H27.7433V81.6403C27.7433 81.2853 28.0314 80.9972 28.3863 80.9972C28.7413 80.9972 29.0294 81.2853 29.0294 81.6403V85.4985C29.0294 85.8535 28.7413 86.1416 28.3863 86.1416ZM51.5359 86.4039H47.6776C47.3227 86.4039 47.0346 86.1159 47.0346 85.7609C47.0346 85.4059 47.3227 85.1179 47.6776 85.1179H50.8929V81.9026C50.8929 81.5477 51.1809 81.2596 51.5359 81.2596C51.8909 81.2596 52.1789 81.5477 52.1789 81.9026V85.7609C52.1789 86.1159 51.8909 86.4039 51.5359 86.4039ZM43.7924 89.9998H32.2176C31.8626 89.9998 31.5745 89.7118 31.5745 89.3568V73.9238C31.5745 73.5688 31.8626 73.2807 32.2176 73.2807H43.7924C44.1473 73.2807 44.4354 73.5688 44.4354 73.9238V89.3568C44.4354 89.7118 44.1473 89.9998 43.7924 89.9998ZM32.8606 88.7138H43.1493V74.5668H32.8606V88.7138Z" fill="#006FBA"/>
<path d="M38.0317 90.0004C37.6768 90.0004 37.3887 89.7123 37.3887 89.3573V73.9243C37.3887 73.5693 37.6768 73.2812 38.0317 73.2812C38.3867 73.2812 38.6748 73.5693 38.6748 73.9243V89.3573C38.6748 89.7123 38.3867 90.0004 38.0317 90.0004Z" fill="#006FBA"/>
</svg>
